<svg xmlns="http://www.w3.org/2000/svg" viewBox="0 0 512 512"><defs><style>.cls-1{fill:#6f6;}.cls-2{fill:#fff;}</style></defs><title>percentage</title><g id="Solid"><rect class="cls-1" width="512" height="512" rx="70"/></g><g id="Calque_3" data-name="Calque 3"><g id="Layer_5" data-name="Layer 5"><path class="cls-2" d="M234.78,219.69C247.14,206.27,254,188.28,254,169c0-36.68-26.2-73.81-76.29-73.81-23.31,0-43,8-56.87,23.15-12.31,13.42-19.08,31.41-19.08,50.66,0,36.69,26.09,73.82,75.95,73.82C201.07,242.83,220.82,234.83,234.78,219.69Zm-57.11-90.17c27.45,0,39.94,20.48,39.94,39.52,0,10.35-3.48,19.94-9.81,27-7.07,7.87-17.33,12-29.68,12-28.14,0-41-20.49-41-39.52C137.16,149.12,149.69,129.52,177.67,129.52Z"/><path class="cls-2" d="M359.83,123.67A21.73,21.73,0,0,0,346.06,130L120.74,380.47c-3,3.38-.88,8.11,3.66,8.11h29.49a21.15,21.15,0,0,0,13.76-6.15L391.57,132c3-3.38,2.83-8.88-4.67-8.88Z"/><path class="cls-2" d="M335.2,271c-22.86,0-42.15,7.86-55.78,22.71-12.07,13.16-18.73,30.81-18.73,49.7,0,36,25.6,72.41,74.51,72.41,23,0,42.33-7.85,56-22.7C403.36,380,410,362.33,410,343.43,410,307.45,384.34,271,335.2,271Zm.45,111.59c-27.38,0-39.85-20.55-39.85-39.64,0-10.4,3.48-20,9.81-27.1,7.05-7.89,17.28-12.06,29.59-12.06,27.38,0,39.85,20.55,39.85,39.65,0,10.39-3.48,20-9.81,27.09C358.19,378.44,348,382.61,335.65,382.61Z"/></g></g></svg>