<svg id="Solid" xmlns="http://www.w3.org/2000/svg" viewBox="0 0 512 512"><defs><style>.cls-1{fill:#6464ff;}.cls-2{fill:#fff;}</style></defs><title>recette-du-jours</title><rect class="cls-1" width="512" height="512" rx="70"/><path class="cls-2" d="M415.7,327.7c0-76-61.87-137.92-137.92-137.92H234.22c-76.05,0-137.92,61.87-137.92,137.92V335H415.7Z"/><path class="cls-2" d="M67.26,364H444.74a7.26,7.26,0,0,0,7.26-7.26v-7.26H60v7.26A7.26,7.26,0,0,0,67.26,364Z"/><path class="cls-2" d="M285,146.22H227a7.26,7.26,0,0,0,0,14.52h14.52v14.52h29V160.74H285a7.26,7.26,0,0,0,0-14.52Z"/></svg>