<svg id="Calque_1_-_copie_3" data-name="Calque 1 - copie 3" xmlns="http://www.w3.org/2000/svg" viewBox="0 0 1100.41 1303.02"><defs><style>.cls-1{fill:#54c1de;}.cls-2{fill:#35204f;}</style></defs><title>trepho</title><path class="cls-1" d="M516.79,1257.22c0-1.5-.6-2.1-1.8-2.1h-5.4c-24.3,0-51.3,10.2-51.3,36.3,0,16.5,4.5,21.9,6.9,21.9,1.8,0,2.1-.3,2.1-3.6,0-4.8,3.6-9.3,9.9-9.3,5.4,0,9.6,5.1,9.6,9.6,0,5.7-3.6,10.5-11.4,10.5-18.9,0-21.3-14.4-21.3-41.4,0-14.1-3.6-19.5-8.1-23.7-.9-.6-1.5-1.2-1.5-1.8,0-.9.3-1.5,1.2-1.5h160.2c.9,0,1.2.6,1.2,1.5,0,.6-.6,1.2-1.5,1.8-4.5,4.2-8.1,9.6-8.1,23.7,0,27-2.4,41.4-21.3,41.4-7.8,0-11.4-4.8-11.4-10.5,0-4.5,4.2-9.6,9.6-9.6,6.3,0,9.9,4.5,9.9,9.3,0,3.3.3,3.6,2.1,3.6,2.4,0,6.9-5.4,6.9-21.9,0-26.1-27-36.3-51.3-36.3h-6c-1.2,0-1.8.6-1.8,2.1v113.4c0,14.7,3.9,17.1,20.7,17.1a1.42,1.42,0,0,1,1.5,1.5c0,.9-.3,1.5-1.2,1.5h-59.4c-.9,0-1.2-.6-1.2-1.5a1.42,1.42,0,0,1,1.5-1.5c15.9,0,20.7-3.6,20.7-17.1Z" transform="translate(-264.89 -137.5)"/><path class="cls-1" d="M682.09,1296.52c10.5,0,21,6.3,21,18.3,0,9-6.3,14.7-14.4,14.7-7.2,0-12.9-4.5-12.9-10.5a1.37,1.37,0,0,1,1.2-1.5c.9,0,1.2.3,2.4.3,4.2,0,6.9-2.1,6.9-7.8s-4.5-9.3-10.5-9.3c-12.3,0-18.6,8.7-24.3,18-2.1,3.3-3.3,8.7-3.3,13.2v40.2c0,13.2,3.3,15.6,18.6,15.6a1.42,1.42,0,0,1,1.5,1.5c0,.9-.3,1.5-1.2,1.5h-53.4c-.9,0-1.2-.6-1.2-1.5a1.42,1.42,0,0,1,1.5-1.5c13.8,0,18.6-2.4,18.6-15.6v-54c0-13.2-3.3-15.6-18.6-15.6a1.42,1.42,0,0,1-1.5-1.5c0-.9.3-1.5,1.2-1.5h32.7c1.5,0,1.8.9,1.8,2.1v13.5c0,.6.3.9.6.9.6,0,.9-.3,1.2-.9C655.39,1306.72,663.19,1296.52,682.09,1296.52Z" transform="translate(-264.89 -137.5)"/><path class="cls-1" d="M802.69,1349.92c0-.9.9-1.2,1.5-1.2.9,0,1.5.3,2.1,1.8a24.25,24.25,0,0,1,1.5,8.1c0,20.7-18.3,35.1-40.5,35.1-24.9,0-52.5-16.8-52.5-47.4s27.6-49.8,52.5-49.8c19.8,0,39.3,13.5,39.3,36.3,0,2.1-.6,3.3-2.4,3.3-31.2,0-53.1,6-53.1,9.9,0,.6.6,1.2,2.1,1.2a8,8,0,0,1,8.1,8.1,8.44,8.44,0,0,1-8.4,8.7c-5.4,0-9-4.2-9-9.3,0-9.6,6-14.7,24-18.6,17.7-3.9,23.7-9,23.7-18,0-11.4-9.9-18.6-24.3-18.6-22.8,0-35.1,16.8-35.1,46.8,0,27.3,13.2,44.4,35.4,44.4,20.7,0,36.9-13.2,36.9-31.8a22.53,22.53,0,0,0-1.5-7.8A2.27,2.27,0,0,1,802.69,1349.92Z" transform="translate(-264.89 -137.5)"/><path class="cls-1" d="M885.49,1296.52c23.4,0,46.2,18,46.2,48.6s-22.8,48.6-46.2,48.6c-11.7,0-20.7-4.2-29.7-11.1-.9-.6-1.2-.9-1.8-.9-.3,0-.6.3-.6.9v36.3c0,13.2,3.3,15.6,18.6,15.6a1.42,1.42,0,0,1,1.5,1.5c0,.9-.3,1.5-1.2,1.5h-53.4c-.9,0-1.2-.6-1.2-1.5a1.42,1.42,0,0,1,1.5-1.5c13.8,0,18.6-2.4,18.6-15.6v-100.8c0-13.2-3.3-15.6-18.6-15.6a1.42,1.42,0,0,1-1.5-1.5c0-.9.3-1.5,1.2-1.5h32.7c1.5,0,1.8.9,1.8,2.1v6c0,.6.3.9.6.9a2.59,2.59,0,0,0,1.8-.9C864.79,1300.72,873.79,1296.52,885.49,1296.52Zm-32.1,75c0,3.6,1.5,6,4.8,8.7,7.8,6.6,16.8,10.5,24.9,10.5,22.8,0,31.2-15.6,31.2-45.6s-8.4-45.6-31.2-45.6c-8.1,0-17.1,3.9-24.9,10.5-3.3,2.7-4.8,5.1-4.8,8.7Z" transform="translate(-264.89 -137.5)"/><path class="cls-1" d="M1033.08,1436.62c.9,0,1.2-.3,1.2-.6s-.3-.6-.9-1.2a7.46,7.46,0,0,1-2.7-6,9.3,9.3,0,0,1,18.6,0c0,7.8-6.6,11.7-12.6,11.7-14.1,0-21-10.2-21-20.7,0-11.7,2.7-20.1,10.8-33.3,9.6-16.5,13.2-28.8,13.2-46.2,0-22.8-10.2-40.8-32.4-40.8-8.1,0-17.1,3.9-24.9,10.5-3.3,2.7-4.8,5.1-4.8,8.7v53.4c0,13.2,3.3,15.6,18.6,15.6a1.42,1.42,0,0,1,1.5,1.5c0,.9-.3,1.5-1.2,1.5h-53.4c-.9,0-1.2-.6-1.2-1.5a1.42,1.42,0,0,1,1.5-1.5c13.8,0,18.6-2.4,18.6-15.6v-101.4c0-13.2-3.3-15.6-18.6-15.6a1.42,1.42,0,0,1-1.5-1.5c0-.9.3-1.5,1.2-1.5h32.7c1.5,0,1.8.9,1.8,2.1v53.4c0,.6.3.9.6.9.6,0,.9-.3,1.8-.9,9.3-6.9,17.7-11.1,29.1-11.1,30,0,46.5,24.6,46.5,54.6,0,26.1-8.4,42.6-19.2,42.6-5.7,0-6-3-7.8-3-.9,0-1.5.9-1.8,1.5a50.33,50.33,0,0,0-7.8,27.6C1019,1429.12,1024.68,1436.62,1033.08,1436.62Z" transform="translate(-264.89 -137.5)"/><path class="cls-1" d="M1127.28,1393.72c-24.9,0-52.5-18-52.5-48.6s27.6-48.6,52.5-48.6,52.5,18,52.5,48.6S1152.18,1393.72,1127.28,1393.72Zm0-3c22.8,0,35.1-15.6,35.1-45.6s-12.3-45.6-35.1-45.6-35.1,15.6-35.1,45.6S1104.48,1390.72,1127.28,1390.72Z" transform="translate(-264.89 -137.5)"/><path class="cls-1" d="M516.79,1257.22c0-1.5-.6-2.1-1.8-2.1h-5.4c-24.3,0-51.3,10.2-51.3,36.3,0,16.5,4.5,21.9,6.9,21.9,1.8,0,2.1-.3,2.1-3.6,0-4.8,3.6-9.3,9.9-9.3,5.4,0,9.6,5.1,9.6,9.6,0,5.7-3.6,10.5-11.4,10.5-18.9,0-21.3-14.4-21.3-41.4,0-14.1-3.6-19.5-8.1-23.7-.9-.6-1.5-1.2-1.5-1.8,0-.9.3-1.5,1.2-1.5h160.2c.9,0,1.2.6,1.2,1.5,0,.6-.6,1.2-1.5,1.8-4.5,4.2-8.1,9.6-8.1,23.7,0,27-2.4,41.4-21.3,41.4-7.8,0-11.4-4.8-11.4-10.5,0-4.5,4.2-9.6,9.6-9.6,6.3,0,9.9,4.5,9.9,9.3,0,3.3.3,3.6,2.1,3.6,2.4,0,6.9-5.4,6.9-21.9,0-26.1-27-36.3-51.3-36.3h-6c-1.2,0-1.8.6-1.8,2.1v113.4c0,14.7,3.9,17.1,20.7,17.1a1.42,1.42,0,0,1,1.5,1.5c0,.9-.3,1.5-1.2,1.5h-59.4c-.9,0-1.2-.6-1.2-1.5a1.42,1.42,0,0,1,1.5-1.5c15.9,0,20.7-3.6,20.7-17.1Z" transform="translate(-264.89 -137.5)"/><path class="cls-1" d="M682.09,1296.52c10.5,0,21,6.3,21,18.3,0,9-6.3,14.7-14.4,14.7-7.2,0-12.9-4.5-12.9-10.5a1.37,1.37,0,0,1,1.2-1.5c.9,0,1.2.3,2.4.3,4.2,0,6.9-2.1,6.9-7.8s-4.5-9.3-10.5-9.3c-12.3,0-18.6,8.7-24.3,18-2.1,3.3-3.3,8.7-3.3,13.2v40.2c0,13.2,3.3,15.6,18.6,15.6a1.42,1.42,0,0,1,1.5,1.5c0,.9-.3,1.5-1.2,1.5h-53.4c-.9,0-1.2-.6-1.2-1.5a1.42,1.42,0,0,1,1.5-1.5c13.8,0,18.6-2.4,18.6-15.6v-54c0-13.2-3.3-15.6-18.6-15.6a1.42,1.42,0,0,1-1.5-1.5c0-.9.3-1.5,1.2-1.5h32.7c1.5,0,1.8.9,1.8,2.1v13.5c0,.6.3.9.6.9.6,0,.9-.3,1.2-.9C655.39,1306.72,663.19,1296.52,682.09,1296.52Z" transform="translate(-264.89 -137.5)"/><path class="cls-1" d="M802.69,1349.92c0-.9.9-1.2,1.5-1.2.9,0,1.5.3,2.1,1.8a24.25,24.25,0,0,1,1.5,8.1c0,20.7-18.3,35.1-40.5,35.1-24.9,0-52.5-16.8-52.5-47.4s27.6-49.8,52.5-49.8c19.8,0,39.3,13.5,39.3,36.3,0,2.1-.6,3.3-2.4,3.3-31.2,0-53.1,6-53.1,9.9,0,.6.6,1.2,2.1,1.2a8,8,0,0,1,8.1,8.1,8.44,8.44,0,0,1-8.4,8.7c-5.4,0-9-4.2-9-9.3,0-9.6,6-14.7,24-18.6,17.7-3.9,23.7-9,23.7-18,0-11.4-9.9-18.6-24.3-18.6-22.8,0-35.1,16.8-35.1,46.8,0,27.3,13.2,44.4,35.4,44.4,20.7,0,36.9-13.2,36.9-31.8a22.53,22.53,0,0,0-1.5-7.8A2.27,2.27,0,0,1,802.69,1349.92Z" transform="translate(-264.89 -137.5)"/><path class="cls-1" d="M885.49,1296.52c23.4,0,46.2,18,46.2,48.6s-22.8,48.6-46.2,48.6c-11.7,0-20.7-4.2-29.7-11.1-.9-.6-1.2-.9-1.8-.9-.3,0-.6.3-.6.9v36.3c0,13.2,3.3,15.6,18.6,15.6a1.42,1.42,0,0,1,1.5,1.5c0,.9-.3,1.5-1.2,1.5h-53.4c-.9,0-1.2-.6-1.2-1.5a1.42,1.42,0,0,1,1.5-1.5c13.8,0,18.6-2.4,18.6-15.6v-100.8c0-13.2-3.3-15.6-18.6-15.6a1.42,1.42,0,0,1-1.5-1.5c0-.9.3-1.5,1.2-1.5h32.7c1.5,0,1.8.9,1.8,2.1v6c0,.6.3.9.6.9a2.59,2.59,0,0,0,1.8-.9C864.79,1300.72,873.79,1296.52,885.49,1296.52Zm-32.1,75c0,3.6,1.5,6,4.8,8.7,7.8,6.6,16.8,10.5,24.9,10.5,22.8,0,31.2-15.6,31.2-45.6s-8.4-45.6-31.2-45.6c-8.1,0-17.1,3.9-24.9,10.5-3.3,2.7-4.8,5.1-4.8,8.7Z" transform="translate(-264.89 -137.5)"/><path class="cls-1" d="M1033.08,1436.62c.9,0,1.2-.3,1.2-.6s-.3-.6-.9-1.2a7.46,7.46,0,0,1-2.7-6,9.3,9.3,0,0,1,18.6,0c0,7.8-6.6,11.7-12.6,11.7-14.1,0-21-10.2-21-20.7,0-11.7,2.7-20.1,10.8-33.3,9.6-16.5,13.2-28.8,13.2-46.2,0-22.8-10.2-40.8-32.4-40.8-8.1,0-17.1,3.9-24.9,10.5-3.3,2.7-4.8,5.1-4.8,8.7v53.4c0,13.2,3.3,15.6,18.6,15.6a1.42,1.42,0,0,1,1.5,1.5c0,.9-.3,1.5-1.2,1.5h-53.4c-.9,0-1.2-.6-1.2-1.5a1.42,1.42,0,0,1,1.5-1.5c13.8,0,18.6-2.4,18.6-15.6v-101.4c0-13.2-3.3-15.6-18.6-15.6a1.42,1.42,0,0,1-1.5-1.5c0-.9.3-1.5,1.2-1.5h32.7c1.5,0,1.8.9,1.8,2.1v53.4c0,.6.3.9.6.9.6,0,.9-.3,1.8-.9,9.3-6.9,17.7-11.1,29.1-11.1,30,0,46.5,24.6,46.5,54.6,0,26.1-8.4,42.6-19.2,42.6-5.7,0-6-3-7.8-3-.9,0-1.5.9-1.8,1.5a50.33,50.33,0,0,0-7.8,27.6C1019,1429.12,1024.68,1436.62,1033.08,1436.62Z" transform="translate(-264.89 -137.5)"/><path class="cls-1" d="M1127.28,1393.72c-24.9,0-52.5-18-52.5-48.6s27.6-48.6,52.5-48.6,52.5,18,52.5,48.6S1152.18,1393.72,1127.28,1393.72Zm0-3c22.8,0,35.1-15.6,35.1-45.6s-12.3-45.6-35.1-45.6-35.1,15.6-35.1,45.6S1104.48,1390.72,1127.28,1390.72Z" transform="translate(-264.89 -137.5)"/><path class="cls-2" d="M321.67,1062.94l44.78-25.84a25.33,25.33,0,0,1,25.32,0l159.56,92.12a15.21,15.21,0,0,0,15.19,0l170.76-98.58a15.2,15.2,0,0,0,7.59-13.16V820.31a15.2,15.2,0,0,0-7.59-13.16L566.52,708.57a15.16,15.16,0,0,0-15.19,0L380.58,807.15a15.21,15.21,0,0,0-7.6,13.16v183a25.31,25.31,0,0,1-12.67,21.93l-44.76,25.83-50.66,29.23s33.83-23.62,47.54-58.42a45.46,45.46,0,0,0,3.12-16.71V787.15a15.19,15.19,0,0,1,7.6-13.15L551.33,642.26a15.16,15.16,0,0,1,15.19,0L794.7,774a15.19,15.19,0,0,1,7.6,13.15v263.48a15.19,15.19,0,0,1-7.6,13.16L566.52,1195.53a15.16,15.16,0,0,1-15.19,0L358.26,1084.06a56.09,56.09,0,0,0-26.42-7.5c-14.35-.4-36.31,2-60.31,15.3l50.14-28.92Z" transform="translate(-264.89 -137.5)"/><path class="cls-1" d="M702.19,973.78a4.07,4.07,0,0,0-.43-1.75L677.11,922.6V861.09a15.3,15.3,0,0,0-15.28-15.29H652.2V806.15a4.17,4.17,0,0,0-7.19-2.8l-10.73,11.72-10.74-11.72a4.18,4.18,0,0,0-6.1,0L606.7,815.07,596,803.35a4.17,4.17,0,0,0-7.19,2.8V845.8H568.13a4.14,4.14,0,1,0,0,8.28h93.7a7,7,0,0,1,7,7v58.35H453.65V861.09a7,7,0,0,1,7-7h90.92a4.14,4.14,0,0,0,0-8.28H528.19V818.08h23.39a4.15,4.15,0,0,0,4.14-4.14V780a4.15,4.15,0,0,0-4.14-4.14H475.73A4.14,4.14,0,0,0,471.6,780v33.91a4.14,4.14,0,0,0,4.13,4.14h22.4V845.8H460.66a15.31,15.31,0,0,0-15.29,15.29V922.6L420.72,972a4.19,4.19,0,0,0-.44,1.84v47.41a15.31,15.31,0,0,0,15.29,15.29h29.78a4.14,4.14,0,1,0,0-8.28H435.57a7,7,0,0,1-7-7V978H632.8a4.14,4.14,0,0,0,0-8.27H431.11l21-42H670.42l21,42h-42a4.14,4.14,0,1,0,0,8.27h44.57v43.27a7,7,0,0,1-7,7h-205a4.14,4.14,0,1,0,0,8.28h205a15.31,15.31,0,0,0,15.29-15.29V973.87A.28.28,0,0,0,702.19,973.78Zm-58.27-128H597.06v-29l6.59,7.2a4.18,4.18,0,0,0,6.11,0l10.73-11.72L631.22,824a4.18,4.18,0,0,0,6.11,0l6.59-7.2v29Zm-124,0H506.41V818.08h13.51Zm-40-36V784.17h67.57V809.8Z" transform="translate(-264.89 -137.5)"/><path class="cls-1" d="M486.4,946.45a4.14,4.14,0,0,0,0-8.28h-9.82a4.14,4.14,0,1,0,0,8.28Z" transform="translate(-264.89 -137.5)"/><path class="cls-1" d="M470.52,953h-9.81a4.14,4.14,0,1,0,0,8.27h9.81a4.14,4.14,0,1,0,0-8.27Z" transform="translate(-264.89 -137.5)"/><path class="cls-1" d="M518.07,946.45a4.14,4.14,0,0,0,0-8.28h-9.81a4.14,4.14,0,1,0,0,8.28Z" transform="translate(-264.89 -137.5)"/><path class="cls-1" d="M492.38,961.24h9.82a4.14,4.14,0,0,0,0-8.27h-9.82a4.14,4.14,0,1,0,0,8.27Z" transform="translate(-264.89 -137.5)"/><path class="cls-1" d="M549.75,946.45a4.14,4.14,0,0,0,0-8.28h-9.82a4.14,4.14,0,1,0,0,8.28Z" transform="translate(-264.89 -137.5)"/><path class="cls-1" d="M524.06,961.24h9.81a4.14,4.14,0,1,0,0-8.27h-9.81a4.14,4.14,0,1,0,0,8.27Z" transform="translate(-264.89 -137.5)"/><path class="cls-1" d="M582,946.45a4.14,4.14,0,0,0,0-8.28h-9.81a4.14,4.14,0,1,0,0,8.28Z" transform="translate(-264.89 -137.5)"/><path class="cls-1" d="M556.33,961.24h9.82a4.14,4.14,0,1,0,0-8.27h-9.82a4.14,4.14,0,0,0,0,8.27Z" transform="translate(-264.89 -137.5)"/><path class="cls-1" d="M613.7,946.45a4.14,4.14,0,0,0,0-8.28h-9.81a4.14,4.14,0,1,0,0,8.28Z" transform="translate(-264.89 -137.5)"/><path class="cls-1" d="M588,961.24h9.82a4.14,4.14,0,0,0,0-8.27H588a4.14,4.14,0,1,0,0,8.27Z" transform="translate(-264.89 -137.5)"/><path class="cls-1" d="M646,946.45a4.14,4.14,0,0,0,0-8.28h-9.82a4.14,4.14,0,0,0,0,8.28Z" transform="translate(-264.89 -137.5)"/><path class="cls-1" d="M620.29,961.24h9.81a4.14,4.14,0,1,0,0-8.27h-9.81a4.14,4.14,0,1,0,0,8.27Z" transform="translate(-264.89 -137.5)"/><path class="cls-1" d="M652,961.24h9.82a4.14,4.14,0,1,0,0-8.27H652a4.14,4.14,0,0,0,0,8.27Z" transform="translate(-264.89 -137.5)"/><path class="cls-1" d="M584.21,1016a12.85,12.85,0,1,0,0-25.69H538.28a12.85,12.85,0,1,0,0,25.69Zm-50.51-12.85a4.58,4.58,0,0,1,4.58-4.57h45.93a4.57,4.57,0,0,1,0,9.14H538.28A4.58,4.58,0,0,1,533.7,1003.15Z" transform="translate(-264.89 -137.5)"/><path class="cls-1" d="M551.58,865.67H475.73a4.13,4.13,0,0,0-4.13,4.14v33.9a4.13,4.13,0,0,0,4.13,4.14h75.85a4.13,4.13,0,0,0,4.13-4.14v-33.9A4.13,4.13,0,0,0,551.58,865.67Zm-4.14,33.9H479.87V873.94h67.57Z" transform="translate(-264.89 -137.5)"/><path class="cls-1" d="M578.35,881.9h9.81a4.14,4.14,0,1,0,0-8.27h-9.81a4.14,4.14,0,1,0,0,8.27Z" transform="translate(-264.89 -137.5)"/><path class="cls-1" d="M578.35,899.89h9.81a4.14,4.14,0,1,0,0-8.28h-9.81a4.14,4.14,0,1,0,0,8.28Z" transform="translate(-264.89 -137.5)"/><path class="cls-1" d="M610,881.9h9.82a4.14,4.14,0,0,0,0-8.27H610a4.14,4.14,0,1,0,0,8.27Z" transform="translate(-264.89 -137.5)"/><path class="cls-1" d="M610,899.89h9.82a4.14,4.14,0,0,0,0-8.28H610a4.14,4.14,0,0,0,0,8.28Z" transform="translate(-264.89 -137.5)"/><path class="cls-1" d="M641.7,881.9h9.81a4.14,4.14,0,1,0,0-8.27H641.7a4.14,4.14,0,1,0,0,8.27Z" transform="translate(-264.89 -137.5)"/><path class="cls-1" d="M641.7,899.89h9.81a4.14,4.14,0,0,0,0-8.28H641.7a4.14,4.14,0,0,0,0,8.28Z" transform="translate(-264.89 -137.5)"/><path class="cls-1" d="M1106.52,907.32a6.09,6.09,0,0,1-4.29-1.78l-16.76-16.89a6.13,6.13,0,0,1-1.11-7c7.35-15.25,23.72-21,24.41-21.23a2.08,2.08,0,0,1,1.34,3.93c-.15,0-15.43,5.44-22,19.11a2,2,0,0,0,.32,2.25l16.75,16.88a1.86,1.86,0,0,0,2,.44l15.24-5.61a2.07,2.07,0,1,1,1.44,3.89L1108.6,907A6,6,0,0,1,1106.52,907.32Z" transform="translate(-264.89 -137.5)"/><path class="cls-1" d="M1089,916.36a6.36,6.36,0,0,1-2.38-.45,6.24,6.24,0,0,1-4-4.8c-2.09-12.19,3.65-23,3.9-23.42a2,2,0,0,1,1.53-1.06,2,2,0,0,1,1.76.59l15.28,15.39a2.09,2.09,0,0,1,.6,1.6,2.07,2.07,0,0,1-.8,1.5l-12,9.3A6.47,6.47,0,0,1,1089,916.36Zm0-24.07c-1.45,3.66-3.57,10.69-2.29,18.12a2.14,2.14,0,0,0,1.36,1.64,2.33,2.33,0,0,0,2.29-.33l10.14-7.85Z" transform="translate(-264.89 -137.5)"/><path class="cls-1" d="M1136.53,904.43c-2.69,0-5.38-.09-8.06-.25a10,10,0,0,1-8.81-6.64l-12.17-34.44a10.14,10.14,0,0,1,5.32-12.46c10.68-4.73,23.23-4.75,23.72-4.74s13,0,23.71,4.74a10.15,10.15,0,0,1,5.33,12.46l-12.18,34.45a10,10,0,0,1-8.81,6.63h-.19Q1140.47,904.43,1136.53,904.43Zm-22-50a6,6,0,0,0-3.09,7.29l12.17,34.43a5.84,5.84,0,0,0,5.15,3.89,125.77,125.77,0,0,0,15.41,0h.19a5.81,5.81,0,0,0,5.15-3.87l12.18-34.45a6,6,0,0,0-3.09-7.29c-9.84-4.36-21.85-4.42-22-4.38s-12.23,0-22,4.38Z" transform="translate(-264.89 -137.5)"/><path class="cls-1" d="M1166.53,907.32a6,6,0,0,1-2.07-.37l-15.24-5.62a2.07,2.07,0,1,1,1.43-3.89l15.24,5.61a1.88,1.88,0,0,0,2-.44l16.76-16.88a2,2,0,0,0,.31-2.25c-6.6-13.72-21.86-19.06-22-19.11a2.08,2.08,0,0,1,1.34-3.93c.69.24,17.06,6,24.41,21.24a6.12,6.12,0,0,1-1.11,7l-16.76,16.89A6.07,6.07,0,0,1,1166.53,907.32Z" transform="translate(-264.89 -137.5)"/><path class="cls-1" d="M1184,916.36a6.42,6.42,0,0,1-3.94-1.35l-12-9.3a2.07,2.07,0,0,1-.8-1.5,2.09,2.09,0,0,1,.6-1.6l15.28-15.39a2,2,0,0,1,1.77-.59,2.07,2.07,0,0,1,1.53,1.06c.24.45,6,11.23,3.89,23.42a6.24,6.24,0,0,1-3.94,4.8A6.45,6.45,0,0,1,1184,916.36Zm-11.54-12.49,10.14,7.85a2.31,2.31,0,0,0,2.28.33,2.17,2.17,0,0,0,1.37-1.64c1.27-7.46-.84-14.48-2.29-18.13Z" transform="translate(-264.89 -137.5)"/><path class="cls-1" d="M1143.46,835a2.09,2.09,0,0,1-1.25-.42l-13-9.8a6,6,0,0,1-2.25-6.12l5.16-23.22a6.12,6.12,0,0,1,5.27-4.7c16.81-2.06,30.48,8.63,31,9.08a2.07,2.07,0,1,1-2.58,3.25c-.12-.1-12.92-10.05-28-8.21a2,2,0,0,0-1.73,1.48l-5.16,23.22a1.87,1.87,0,0,0,.7,1.91l13,9.8a2.07,2.07,0,0,1-1.25,3.73Z" transform="translate(-264.89 -137.5)"/><path class="cls-1" d="M1129,821.18a2,2,0,0,1-.69-.12L1114,816a6.44,6.44,0,0,1-4.18-4.84,6.26,6.26,0,0,1,1.91-5.92c9.13-8.34,21.3-9.33,21.82-9.36a2,2,0,0,1,1.72.71,2,2,0,0,1,.45,1.81l-4.7,21.17a2.05,2.05,0,0,1-1,1.36A2,2,0,0,1,1129,821.18Zm2-20.74c-3.86.76-10.93,2.77-16.49,7.85a2.13,2.13,0,0,0-.64,2,2.31,2.31,0,0,0,1.5,1.76l12.08,4.29Z" transform="translate(-264.89 -137.5)"/><path class="cls-1" d="M1170,855.65a2.07,2.07,0,0,1-.49-4.09L1196,845a6,6,0,0,0,4.48-6.54c-1.65-10.67-8.13-20.8-8.2-20.9s-6.6-10.25-15.59-16.19a6,6,0,0,0-7.8,1.33l-22.41,28.84a5.81,5.81,0,0,0-.49,6.43l.46.85c.27.49.41.73.9,1.55a2.08,2.08,0,1,1-3.56,2.14c-.53-.89-.68-1.16-1-1.7l-.46-.82a10,10,0,0,1,.84-11l22.41-28.85a10.15,10.15,0,0,1,13.37-2.24c9.74,6.43,16.51,17,16.79,17.4s7,11,8.81,22.52a10.15,10.15,0,0,1-7.61,11.21l-26.42,6.53A2.14,2.14,0,0,1,1170,855.65Z" transform="translate(-264.89 -137.5)"/><path class="cls-1" d="M1193.3,877.24a2,2,0,0,1-1-.23,2.07,2.07,0,0,1-.9-2.79c6.37-12.48,3-26.54,3-26.68a2.08,2.08,0,0,1,4-1c.16.64,3.75,15.72-3.32,29.57A2.05,2.05,0,0,1,1193.3,877.24Z" transform="translate(-264.89 -137.5)"/><path class="cls-1" d="M1128.94,890.75a2.08,2.08,0,0,1-2-1.46l-8-26.27a2.07,2.07,0,1,1,4-1.22l8.06,26.27a2.06,2.06,0,0,1-1.38,2.59A1.79,1.79,0,0,1,1128.94,890.75Z" transform="translate(-264.89 -137.5)"/><path class="cls-1" d="M1156.61,835a2,2,0,0,1-1.3-.46,2.07,2.07,0,0,1-.32-2.92l16.24-20.18a2.07,2.07,0,1,1,3.23,2.6l-16.24,20.18A2.07,2.07,0,0,1,1156.61,835Z" transform="translate(-264.89 -137.5)"/><path class="cls-1" d="M1019.82,902.33H973.36a17.41,17.41,0,0,1-13.85-6.92l-4.61-6.15a2.09,2.09,0,0,1,1.68-3.34h80a2.09,2.09,0,0,1,1.87,1.16,2.05,2.05,0,0,1-.2,2.18l-4.6,6.15A17.41,17.41,0,0,1,1019.82,902.33ZM960.75,890.1l2.1,2.8a13.2,13.2,0,0,0,10.51,5.25h46.46a13.17,13.17,0,0,0,10.5-5.25l2.1-2.8Z" transform="translate(-264.89 -137.5)"/><path class="cls-1" d="M1009.18,890.1H984a2.11,2.11,0,0,1-1-.26l-3-1.67c-16.13-9-27.4-29.23-27.4-49.28a2.1,2.1,0,0,1,2.09-2.09h83.82a2.1,2.1,0,0,1,2.09,2.09c0,20.06-11.27,40.32-27.4,49.28l-3,1.67A2.11,2.11,0,0,1,1009.18,890.1Zm-24.64-4.18h24.09l2.53-1.4c14.31-7.95,24.47-25.63,25.2-43.54H956.81c.74,17.91,10.9,35.59,25.21,43.54Z" transform="translate(-264.89 -137.5)"/><path class="cls-1" d="M1027.89,874a2.09,2.09,0,0,1-.23-4.17l14-1.54a8.56,8.56,0,0,0-.93-17.06h-3.26a2.09,2.09,0,1,1,0-4.17h3.26a12.73,12.73,0,0,1,1.39,25.38l-14,1.55Z" transform="translate(-264.89 -137.5)"/><path class="cls-1" d="M1055.71,902.33H937.46a2.09,2.09,0,0,1,0-4.18h118.25a2.09,2.09,0,0,1,0,4.18Z" transform="translate(-264.89 -137.5)"/><path class="cls-1" d="M981.5,851.23H955.67a2.09,2.09,0,1,1,0-4.17H981.5a2.09,2.09,0,1,1,0,4.17Z" transform="translate(-264.89 -137.5)"/><path class="cls-1" d="M977.24,829.11a2.1,2.1,0,0,1-2.09-2.09,9.94,9.94,0,0,1,2.93-7.08,5.85,5.85,0,0,0,1.8-4.2,5.79,5.79,0,0,0-1.71-4.12,10,10,0,0,1,0-14.14,5.86,5.86,0,0,0,.09-8.33l-.24-.23a10,10,0,0,1-2.86-8.23,2.06,2.06,0,0,1,2.32-1.83,2.08,2.08,0,0,1,1.83,2.31A5.83,5.83,0,0,0,981,786l.23.24a10,10,0,0,1,0,14.14,5.9,5.9,0,0,0-1.79,4.21,5.8,5.8,0,0,0,1.71,4.12,10,10,0,0,1,0,14.14,5.87,5.87,0,0,0-1.8,4.21A2.09,2.09,0,0,1,977.24,829.11Z" transform="translate(-264.89 -137.5)"/><path class="cls-1" d="M994.21,829.11a2.1,2.1,0,0,1-2.09-2.09,10,10,0,0,1,2.93-7.08,5.85,5.85,0,0,0,1.8-4.2,5.79,5.79,0,0,0-1.71-4.12,10,10,0,0,1,0-14.14,5.86,5.86,0,0,0,.09-8.33l-.24-.23a10,10,0,0,1-2.86-8.23,2.09,2.09,0,0,1,4.15.48A5.79,5.79,0,0,0,998,786l.23.24a10,10,0,0,1,0,14.14,5.9,5.9,0,0,0-1.79,4.21,5.8,5.8,0,0,0,1.71,4.12,10,10,0,0,1,0,14.14,5.87,5.87,0,0,0-1.8,4.21A2.09,2.09,0,0,1,994.21,829.11Z" transform="translate(-264.89 -137.5)"/><path class="cls-1" d="M1011.18,829.11a2.1,2.1,0,0,1-2.09-2.09,9.94,9.94,0,0,1,2.93-7.08,5.85,5.85,0,0,0,1.8-4.2,5.79,5.79,0,0,0-1.71-4.12,10,10,0,0,1,0-14.14,5.86,5.86,0,0,0,1.79-4.21,5.79,5.79,0,0,0-1.7-4.12l-.24-.23a10,10,0,0,1-2.86-8.23,2.09,2.09,0,0,1,4.15.48,5.79,5.79,0,0,0,1.67,4.79l.23.24a10,10,0,0,1,0,14.14,5.9,5.9,0,0,0-1.79,4.21,5.78,5.78,0,0,0,1.71,4.12,10,10,0,0,1,0,14.14,5.87,5.87,0,0,0-1.8,4.21A2.09,2.09,0,0,1,1011.18,829.11Z" transform="translate(-264.89 -137.5)"/><path class="cls-1" d="M1202.15,1016.43H1091.34a10.38,10.38,0,0,1,0-20.75h110.81a10.38,10.38,0,0,1,0,20.75Zm-110.81-16.34a6,6,0,0,0,0,11.92h110.81a6,6,0,0,0,0-11.92Z" transform="translate(-264.89 -137.5)"/><path class="cls-1" d="M1199.72,1000.09h-106a2.2,2.2,0,0,1-2.2-2.21,55.18,55.18,0,0,1,110.36,0A2.21,2.21,0,0,1,1199.72,1000.09ZM1096,995.68h101.43a50.76,50.76,0,0,0-101.43,0Z" transform="translate(-264.89 -137.5)"/><path class="cls-1" d="M1116.89,973.6a2.23,2.23,0,0,1-1.36-.46,2.21,2.21,0,0,1-.38-3.1c7.18-9.24,19-14.75,31.6-14.75a2.21,2.21,0,0,1,0,4.41c-11.26,0-21.77,4.88-28.12,13A2.2,2.2,0,0,1,1116.89,973.6Z" transform="translate(-264.89 -137.5)"/><path class="cls-1" d="M1152.49,947.43h-.23a50.75,50.75,0,0,0-11,0,2.18,2.18,0,0,1-1.65-.49,11.26,11.26,0,1,1,14.31,0A2.19,2.19,0,0,1,1152.49,947.43Zm-5.74-16a6.8,6.8,0,0,0-5,11.48,55.11,55.11,0,0,1,10,0,6.75,6.75,0,0,0,1.87-4.64A6.85,6.85,0,0,0,1146.75,931.45Z" transform="translate(-264.89 -137.5)"/><path class="cls-1" d="M1198.89,990.7H1094.61a2.21,2.21,0,1,1,0-4.42h104.28a2.21,2.21,0,0,1,0,4.42Z" transform="translate(-264.89 -137.5)"/><path class="cls-1" d="M994.42,1037.92H956.48a7.73,7.73,0,0,1-7.72-7.72v-4.82a12.56,12.56,0,0,1,1.51-6l3-5.58a19.32,19.32,0,0,0,.91-16.38l-2.11-5.21a9.68,9.68,0,0,1-.71-3.65V967.26A9.75,9.75,0,0,1,953,962l8.66-13.37a15.16,15.16,0,0,0,2.43-8.25V927.46a2.08,2.08,0,0,1,2.08-2.08h18.66a2.08,2.08,0,0,1,2.08,2.08v12.89a15.08,15.08,0,0,0,2.44,8.25L998,962a9.66,9.66,0,0,1,1.57,5.29V988.6a9.68,9.68,0,0,1-.71,3.65l-2.11,5.21a19.17,19.17,0,0,0-1.4,7.22,19.37,19.37,0,0,0,2.31,9.16l3,5.58a12.56,12.56,0,0,1,1.51,6v4.82A7.72,7.72,0,0,1,994.42,1037.92ZM968.2,929.55v10.8a19.28,19.28,0,0,1-3.1,10.51l-8.66,13.37a5.51,5.51,0,0,0-.9,3V988.6a5.56,5.56,0,0,0,.41,2.09l2.11,5.21a23.5,23.5,0,0,1-1.11,19.92l-3,5.58a8.4,8.4,0,0,0-1,4v4.82a3.57,3.57,0,0,0,3.56,3.56h37.94a3.57,3.57,0,0,0,3.56-3.56v-4.82a8.4,8.4,0,0,0-1-4l-3-5.58a23.5,23.5,0,0,1-1.11-19.92l2.11-5.21a5.56,5.56,0,0,0,.41-2.09V967.26a5.51,5.51,0,0,0-.9-3l-8.66-13.37a19.28,19.28,0,0,1-3.1-10.51v-10.8Z" transform="translate(-264.89 -137.5)"/><path class="cls-1" d="M986.88,929.55H964a3.75,3.75,0,0,1-3.74-3.75v-5.35a5.61,5.61,0,0,1,5.61-5.6H985a5.61,5.61,0,0,1,5.61,5.6v5.35A3.75,3.75,0,0,1,986.88,929.55Zm-22.44-4.17h22v-4.93A1.44,1.44,0,0,0,985,919H965.89a1.44,1.44,0,0,0-1.45,1.44Z" transform="translate(-264.89 -137.5)"/><path class="cls-1" d="M997,966.82H953.91a2.08,2.08,0,1,1,0-4.16H997a2.08,2.08,0,0,1,0,4.16Z" transform="translate(-264.89 -137.5)"/><path class="cls-1" d="M997,992.41H953.67a2.08,2.08,0,0,1,0-4.16H997a2.08,2.08,0,0,1,0,4.16Z" transform="translate(-264.89 -137.5)"/><path class="cls-1" d="M1044.82,1037.92h-19.08a7,7,0,0,1-7-5.89L1013,980.87a2.07,2.07,0,0,1,2.06-2.31h40.47a2.07,2.07,0,0,1,2.07,2.31l-5.78,51.05A7.07,7.07,0,0,1,1044.82,1037.92Zm-27.45-55.2,5.52,48.73a2.87,2.87,0,0,0,2.85,2.31h19.08a2.89,2.89,0,0,0,2.86-2.42l5.51-48.62Z" transform="translate(-264.89 -137.5)"/><path class="cls-1" d="M1046.15,997.17c-4.1,0-8.46-.94-13.43-2a30.86,30.86,0,0,0-15.44,1.14,2.08,2.08,0,0,1-1.49-3.88,34.45,34.45,0,0,1,17.81-1.32c8.45,1.82,14,3,19.54.46a2.08,2.08,0,0,1,1.76,3.78A20.28,20.28,0,0,1,1046.15,997.17Z" transform="translate(-264.89 -137.5)"/><path class="cls-1" d="M1055.68,982.72h-40.8a5.06,5.06,0,0,1-3.79-1.72,4.86,4.86,0,0,1-1.16-3.84,25.58,25.58,0,0,1,7.89-15.2,15.24,15.24,0,0,1,10.46-4h14a15.24,15.24,0,0,1,10.47,4,25.58,25.58,0,0,1,7.89,15.2,4.87,4.87,0,0,1-1.17,3.84A5,5,0,0,1,1055.68,982.72Zm-27.4-20.61a11.07,11.07,0,0,0-7.62,2.89,21.43,21.43,0,0,0-6.61,12.72.68.68,0,0,0,.18.54.85.85,0,0,0,.65.3h40.8a.85.85,0,0,0,.65-.3.68.68,0,0,0,.18-.54A21.43,21.43,0,0,0,1049.9,965a11.08,11.08,0,0,0-7.63-2.89Z" transform="translate(-264.89 -137.5)"/><path class="cls-1" d="M1036.38,962.11l-.22,0a2.08,2.08,0,0,1-1.85-2.29l1-9a7.24,7.24,0,0,1,5.08-6.13l14.54-4.43a2.08,2.08,0,0,1,1.21,4l-14.54,4.43a3.06,3.06,0,0,0-2.15,2.6l-1,9A2.09,2.09,0,0,1,1036.38,962.11Z" transform="translate(-264.89 -137.5)"/><path class="cls-1" d="M1030.24,1009.32a5.09,5.09,0,1,1,5.09-5.09A5.09,5.09,0,0,1,1030.24,1009.32Zm0-6a.93.93,0,1,0,.93.93A.93.93,0,0,0,1030.24,1003.3Z" transform="translate(-264.89 -137.5)"/><path class="cls-1" d="M1040.23,1025.94a5.57,5.57,0,1,1,5.58-5.57A5.58,5.58,0,0,1,1040.23,1025.94Zm0-7a1.41,1.41,0,1,0,1.42,1.41A1.41,1.41,0,0,0,1040.23,1019Z" transform="translate(-264.89 -137.5)"/><path class="cls-1" d="M1062.47,1037.92H941.91a2.08,2.08,0,1,1,0-4.16h120.56a2.08,2.08,0,0,1,0,4.16Z" transform="translate(-264.89 -137.5)"/><path class="cls-2" d="M1308.52,1062.94l-44.79-25.84a25.33,25.33,0,0,0-25.32,0l-159.56,92.12a15.21,15.21,0,0,1-15.19,0l-170.75-98.58a15.21,15.21,0,0,1-7.6-13.16V820.31a15.21,15.21,0,0,1,7.6-13.16l170.75-98.58a15.16,15.16,0,0,1,15.19,0l170.76,98.58a15.21,15.21,0,0,1,7.6,13.16v183a25.3,25.3,0,0,0,12.66,21.93l44.76,25.83,50.67,29.23s-33.83-23.62-47.55-58.42a45.66,45.66,0,0,1-3.12-16.71V787.15A15.18,15.18,0,0,0,1307,774L1078.85,642.26a15.16,15.16,0,0,0-15.19,0L835.48,774a15.18,15.18,0,0,0-7.59,13.15v263.48a15.19,15.19,0,0,0,7.59,13.16l228.18,131.74a15.16,15.16,0,0,0,15.19,0l193.07-111.47a56.12,56.12,0,0,1,26.43-7.5c14.34-.4,36.3,2,60.3,15.3l-50.13-28.92Z" transform="translate(-264.89 -137.5)"/><path class="cls-2" d="M825,195.46l-.3,51.71a25.32,25.32,0,0,0,12.52,22l159,93.1a15.23,15.23,0,0,1,7.52,13.21l-1.22,197.16a15.19,15.19,0,0,1-7.68,13.11L823.42,683.28a15.18,15.18,0,0,1-15.19-.09L638.09,583.55a15.19,15.19,0,0,1-7.52-13.2l1.22-197.17a15.17,15.17,0,0,1,7.68-13.11l159.08-90.54a25.33,25.33,0,0,0,12.79-21.86l.31-51.67.34-58.5s-3.79,41.09-27.25,70.22a45.67,45.67,0,0,1-13,11L582.24,326.56a15.2,15.2,0,0,0-7.67,13.11l-1.63,263.48a15.19,15.19,0,0,0,7.52,13.2L807.82,749.5a15.18,15.18,0,0,0,15.19.09l229-130.33a15.17,15.17,0,0,0,7.68-13.11l1.63-263.47a15.2,15.2,0,0,0-7.52-13.21L861.41,216.81a55.87,55.87,0,0,1-19.58-19.25c-7.45-12.27-16.25-32.53-16.54-60L825,195.46Z" transform="translate(-264.89 -137.5)"/><path class="cls-1" d="M905.75,480.89c16.18-.27,30.21-2.43,39.38-19.15a31.57,31.57,0,0,0,3.78-21.31c-1.08-32.37-55.57-41-72.56-33.45h0a54.34,54.34,0,0,0-2.16-36.41c-4.58-11.6-12.94-21.58-24.27-29.13a71.53,71.53,0,0,0-38.3-10.79c-57.72,0-77.68,41.27-79.84,87.93-4.86-4.85-8.9-15.1-9.17-19.42a44.25,44.25,0,0,0-10.52,3.78,40,40,0,0,0-15.65,14.29,34.76,34.76,0,0,0,0,38.84,42.19,42.19,0,0,0,15.65,14.3,45.36,45.36,0,0,0,20,4.85l9.44-2.42,3,10a129.17,129.17,0,0,1,5.12,31.83c0,7,.54,1.61,0,9.43,27.78-6.2,93.87-8.89,131.09,30.76-44.24-28.33-91.71-19.42-141.07-7l-16.45,4.05,2.16-15.38c1.88-12.41,1.88-10.79,1.61-21a112.3,112.3,0,0,0-2.42-20,71.16,71.16,0,0,1-23.74-7.28,63.83,63.83,0,0,1-24-21.58,56.06,56.06,0,0,1-8.9-29.94,55.38,55.38,0,0,1,8.9-29.94,61.75,61.75,0,0,1,24-21.58,65.84,65.84,0,0,1,22.66-7.28,75.09,75.09,0,0,1,4.31-14.56,83.13,83.13,0,0,1,32.64-38.58,96,96,0,0,1,102.5,0,83.05,83.05,0,0,1,32.63,38.58c3.51,8.63,5.4,14.29,5.4,23.46C929,383,967,399.43,971.29,437.19a52.35,52.35,0,0,1-5.93,34,59.69,59.69,0,0,1-26.43,24.55,67.08,67.08,0,0,1-24,5.93c-15.91,4.85-17,19.42-20,44.77-4-17.26-6.74-28.86-5.12-49.9a46.63,46.63,0,0,1-33.18,4.32c32.37-9.44,48-28.59,47.2-57.18a35.06,35.06,0,0,1,1.89,37.22Z" transform="translate(-264.89 -137.5)"/><path class="cls-1" d="M810.27,562.89h0c8.9-7.29,21.85-8.9,32.1-4.86,27.24,11.33,61.22,37.5,82.26,4.05,5.4,51-75.79,64.46-114.36,32.91-38.84,31.55-120,18.07-114.36-32.91,21,33.45,54.75,7.28,82.26-4.05,10.25-4,23.2-2.43,31.83,4.86Z" transform="translate(-264.89 -137.5)"/></svg>