<svg xmlns="http://www.w3.org/2000/svg" viewBox="0 0 512 512"><defs><style>.cls-1{fill:red;}.cls-2{fill:#fff;}</style></defs><title>depenses</title><g id="Solid"><rect class="cls-1" width="512" height="512" rx="70"/></g><g id="Calque_4" data-name="Calque 4"><path class="cls-2" d="M183.88,281a216.22,216.22,0,0,0,28-1.79V182a216.22,216.22,0,0,0-28-1.79c-55.38,0-100.28,20.36-100.28,45.48v9.87C83.6,260.65,128.5,281,183.88,281Z"/><path class="cls-2" d="M183.88,331.79a214.46,214.46,0,0,0,28-1.79V301.5a214.42,214.42,0,0,1-28,1.8c-48.34,0-88.69-15.52-98.17-36.17a22.22,22.22,0,0,0-2.11,9.32v9.86C83.6,311.43,128.5,331.79,183.88,331.79Z"/><path class="cls-2" d="M211.82,354.49v-2.21a215.91,215.91,0,0,1-27.94,1.8c-48.34,0-88.69-15.52-98.17-36.17a22.19,22.19,0,0,0-2.11,9.32v9.86c0,25.12,44.9,45.48,100.28,45.48a212.24,212.24,0,0,0,31.69-2.32,35.87,35.87,0,0,1-3.75-15.89Z"/><path class="cls-2" d="M328.47,103.16c-55.39,0-100.28,20.36-100.28,45.48v9.87c0,25.11,44.89,45.48,100.28,45.48s100.28-20.37,100.28-45.48v-9.87C428.75,123.52,383.85,103.16,328.47,103.16Z"/><path class="cls-2" d="M328.47,226.27c-48.35,0-88.69-15.52-98.17-36.17a22.22,22.22,0,0,0-2.11,9.32v9.86c0,25.12,44.89,45.48,100.28,45.48s100.28-20.36,100.28-45.48v-9.86a22.22,22.22,0,0,0-2.11-9.32C417.16,210.75,376.81,226.27,328.47,226.27Z"/><path class="cls-2" d="M328.47,277.05c-48.35,0-88.69-15.52-98.17-36.17a22.19,22.19,0,0,0-2.11,9.32v9.86c0,25.12,44.89,45.48,100.28,45.48s100.28-20.36,100.28-45.48V250.2a22.19,22.19,0,0,0-2.11-9.32C417.16,261.53,376.81,277.05,328.47,277.05Z"/><path class="cls-2" d="M328.47,330.57c-48.35,0-88.69-15.52-98.17-36.17a22.19,22.19,0,0,0-2.11,9.32v9.86c0,25.12,44.89,45.48,100.28,45.48s100.28-20.36,100.28-45.48v-9.86a22.19,22.19,0,0,0-2.11-9.32C417.16,315.05,376.81,330.57,328.47,330.57Z"/><path class="cls-2" d="M328.47,381.34c-48.35,0-88.69-15.51-98.17-36.16a22.18,22.18,0,0,0-2.11,9.31v9.87c0,25.12,44.89,45.48,100.28,45.48s100.28-20.36,100.28-45.48v-9.87a22.15,22.15,0,0,0-2.11-9.31C417.16,365.83,376.81,381.34,328.47,381.34Z"/></g></svg>