<svg xmlns="http://www.w3.org/2000/svg" viewBox="0 0 291.88 396.24"><defs><style>.cls-1{fill:#65322c;}</style></defs><title>logo-ikbal</title><g id="Calque_17" data-name="Calque 17"><g id="Calque_10" data-name="Calque 10"><path class="cls-1" d="M80.78,394.62a21.33,21.33,0,0,1,3.76-.28,6.1,6.1,0,0,1,4,1.1,3.81,3.81,0,0,1,1.32,3,4.08,4.08,0,0,1-1.16,3.06,6,6,0,0,1-4.26,1.44,6.93,6.93,0,0,1-1.2-.08v5.08H80.78Zm2.44,6.28a5,5,0,0,0,1.2.1c1.84,0,3-.9,3-2.48s-1-2.3-2.74-2.3a6.8,6.8,0,0,0-1.42.12Z" transform="translate(-10.48 -11.9)"/><path class="cls-1" d="M99.32,404.1l-1.16,3.82H95.62l4.32-13.48h3.14l4.38,13.48h-2.64l-1.22-3.82Zm3.86-1.86-1.06-3.32c-.26-.82-.48-1.74-.68-2.52h0c-.2.78-.4,1.72-.64,2.52l-1,3.32Z" transform="translate(-10.48 -11.9)"/><path class="cls-1" d="M116.38,396.5h-3.84v-2.06h10.18v2.06h-3.88v11.42h-2.46Z" transform="translate(-10.48 -11.9)"/><path class="cls-1" d="M132.84,394.44v13.48h-2.46V394.44Z" transform="translate(-10.48 -11.9)"/><path class="cls-1" d="M141.68,405.24a6.81,6.81,0,0,0,3.26.86c1.58,0,2.46-.74,2.46-1.84s-.68-1.62-2.4-2.24c-2.22-.8-3.64-2-3.64-3.92,0-2.2,1.84-3.88,4.76-3.88a7.12,7.12,0,0,1,3.24.68l-.6,2a5.71,5.71,0,0,0-2.68-.64c-1.56,0-2.24.84-2.24,1.62,0,1,.78,1.52,2.58,2.22,2.34.88,3.48,2.06,3.48,4,0,2.16-1.64,4.06-5.12,4.06a8,8,0,0,1-3.64-.86Z" transform="translate(-10.48 -11.9)"/><path class="cls-1" d="M158.14,405.24a6.81,6.81,0,0,0,3.26.86c1.58,0,2.46-.74,2.46-1.84s-.68-1.62-2.4-2.24c-2.22-.8-3.64-2-3.64-3.92,0-2.2,1.84-3.88,4.76-3.88a7.12,7.12,0,0,1,3.24.68l-.6,2a5.71,5.71,0,0,0-2.68-.64c-1.56,0-2.24.84-2.24,1.62,0,1,.78,1.52,2.58,2.22,2.34.88,3.48,2.06,3.48,4,0,2.16-1.64,4.06-5.12,4.06a8,8,0,0,1-3.64-.86Z" transform="translate(-10.48 -11.9)"/><path class="cls-1" d="M182.2,401.94h-5.08v4h5.68v2h-8.14V394.44h7.84v2h-5.38v3.48h5.08Z" transform="translate(-10.48 -11.9)"/><path class="cls-1" d="M191,394.62a23.35,23.35,0,0,1,3.72-.28,6.25,6.25,0,0,1,4.16,1.08,3.41,3.41,0,0,1,1.16,2.7,3.6,3.6,0,0,1-2.44,3.38v.06a3.43,3.43,0,0,1,1.88,2.6,26.91,26.91,0,0,0,1.06,3.76H198a19,19,0,0,1-.9-3.18c-.38-1.76-1-2.32-2.42-2.36h-1.24v5.54H191Zm2.44,6h1.46c1.66,0,2.7-.88,2.7-2.22s-1-2.16-2.64-2.16a7.07,7.07,0,0,0-1.52.12Z" transform="translate(-10.48 -11.9)"/><path class="cls-1" d="M211,394.44v13.48H208.5V394.44Z" transform="translate(-10.48 -11.9)"/><path class="cls-1" d="M227.4,401.94h-5.08v4H228v2h-8.14V394.44h7.84v2h-5.38v3.48h5.08Z" transform="translate(-10.48 -11.9)"/><rect class="cls-1" y="387.02" width="62.88" height="2.88"/><rect class="cls-1" x="224.28" y="387.02" width="67.6" height="2.88"/></g><path class="cls-1" d="M11.48,325.23V321.9H40.87v3.33H39.34q-7.05,0-7,6.42v33.8q0,3.45,1.71,4.83c1.15.92,3,1.38,5.51,1.38h1.35V375H11.48v-3.33h1.31q6.74,0,6.73-5.88V331.65q0-3.45-1.54-4.94c-1-1-2.78-1.48-5.28-1.48Z" transform="translate(-10.48 -11.9)"/><path class="cls-1" d="M66.52,350.24v15.21q0,6.21,7.31,6.21h1.31V375H45v-3.33h1.67q7.14,0,7.13-6.38V331.73c0-2.38-.55-4.07-1.67-5s-3-1.46-5.55-1.46H45V321.9H75.14v3.33H73.56c-2.74,0-4.6.5-5.58,1.48s-1.46,2.77-1.46,5.36V347.4q5.91-.66,12.19-6.46a49.76,49.76,0,0,0,5.46-6q3.52-4.57,3.52-6.83,0-2.83-5.55-2.84h-1V321.9h24.7v3.33a32.4,32.4,0,0,0-5.46.59,10.17,10.17,0,0,0-4.65,2.5,30.43,30.43,0,0,0-3.39,3.87l-3.79,4.88a39,39,0,0,1-8.08,8q3.33,1.59,9.39,8.63l.4.5,8.08,9.5a29,29,0,0,0,6,5.62,14.54,14.54,0,0,0,8,2.3V375H80.87v-3.33q6.47,0,6.46-2.3,0-1.62-7.9-9.75Q75.91,356,73,353.32C70.79,351.26,68.62,350.24,66.52,350.24Z" transform="translate(-10.48 -11.9)"/><path class="cls-1" d="M123.67,364.49V332.73q0-6.12-2.75-7a20.32,20.32,0,0,0-5.28-.5h-2.31V321.9q2.22,0,5.83-.25,4.78-.37,5.82-.42l5.15-.25q7.08-.37,9.84-.37,18.78,0,25.42,6.08a10.19,10.19,0,0,1,3.52,7.75q0,7.63-11.38,10.17a20.85,20.85,0,0,1,10.21,4.79,12.44,12.44,0,0,1,4.37,9.55q0,9.45-11,13.87A34.34,34.34,0,0,1,148.28,375h-35.8v-3.33q8.38,0,10.29-3A8.12,8.12,0,0,0,123.67,364.49Zm12.78-40.3v19c2.71.11,5.08.17,7.13.17q11.56,0,11.56-9,0-10.42-13.82-10.42A45.89,45.89,0,0,0,136.45,324.19Zm0,22.63v16.67c0,3.83,1.17,6.17,3.52,7a14.56,14.56,0,0,0,4.88.67q12.94,0,13-11.88,0-6.21-4.06-9.54-3.88-3.17-10.57-3.17Q140.65,346.57,136.45,346.82Z" transform="translate(-10.48 -11.9)"/><path class="cls-1" d="M217.08,355.28H196.85l-3.88,10c-.93,2.36-1,4-.13,5s3.29,1.42,7.44,1.42h1.18V375H176.94v-3.33h1.4a8.06,8.06,0,0,0,6-2.3,17.32,17.32,0,0,0,3.07-5.54l15.8-40.71-1-2.5h13.68L234.37,364a16.22,16.22,0,0,0,3.25,5.37,9.33,9.33,0,0,0,6,2.3V375H213.56v-3.33h3.25q4.06,0,5.1-1.63c.66-1,.51-2.68-.45-4.87ZM215,350.57l-8.49-20-7.77,20Z" transform="translate(-10.48 -11.9)"/><path class="cls-1" d="M302.09,360.15,295.32,375H245.79v-3.33h1.54q5.59,0,7-2.63a7.62,7.62,0,0,0,.67-3.5V331.36q0-6.14-7.27-6.13H246V321.9H277.3v3.33h-2.66q-6.86,0-6.86,6v35.17c0,1.56.34,2.6,1,3.13a6,6,0,0,0,3.59.79h11.79a11.23,11.23,0,0,0,8.53-3.58q1.53-1.63,5.69-6.55Z" transform="translate(-10.48 -11.9)"/></g><g id="Calque_14" data-name="Calque 14"><g id="Calque_2" data-name="Calque 2"><path class="cls-1" d="M196.81,83.28S274.66,174.43,263,230.51c0,0-15.35,89.82-162,53.24,0,0,105,25.44,148.08-54.71,0,0,21.05-32.38-37.59-93.4L219,206l-20-84.84-6.61-11.31Z" transform="translate(-10.48 -11.9)"/></g><g id="Calque_15" data-name="Calque 15"><path class="cls-1" d="M132.88,85.48s1.77,9.2-2.19,24.38c0,0-13.54,31.15-13.37,39,0,0-6.19,27.16,28.31,28.91,0,0,39,1.43,39.33-36.64,0,0,3.29-25.53-13.67-60.76,0,0-16.73-45.61-18.44-51.88l-2.6-16.62-2.63.06-4.87,18.27,3,64.68,3.64-28.47,3,.09L169,109.13s11.78,28.06,1.48,41.79c0,0-12.61,17.61-33.11,10.61,0,0-16.56-5.06-8.57-32.48C128.84,129.05,143.51,98.55,132.88,85.48Z" transform="translate(-10.48 -11.9)"/></g><g id="Calque_4" data-name="Calque 4"><path class="cls-1" d="M200.84,208.5S189,179.11,167.19,190.37c0,0-13.78,6.69-8.29,28.12,0,0,7.23,15.62,31.45,7.16,0,0,10.94,11.65-8.87,22.85,0,0-39.18,17.47-46-37.78l-2.34,5.48s-1,35.69-27.93,38.72c0,0-43.73,6.81-44.62-54.39,0,0,1.29-27.06,34.65-64.87l-.66,68.82,11.81-80.7,5.7-13.15L105.67,86.7S63,134.18,51.86,205.13c0,0-8.78,70.4,51.67,68.46,0,0,21.54-2.14,33.29-25.09,0,0,10.49,27.52,45.62,14.86C182.44,263.36,215.63,250.29,200.84,208.5ZM183.79,212s0,0-.06,0a.44.44,0,0,1-.35.2.45.45,0,0,1-.23.14.44.44,0,0,1-.31.12h0a1.46,1.46,0,0,1-.74.26,1,1,0,0,1-.47.15h0a1.06,1.06,0,0,1-.37.08l-.2,0a.92.92,0,0,1-.25.05l-.13,0a.92.92,0,0,1-.25.05.8.8,0,0,1-.31,0,.42.42,0,0,1-.12,0,1.6,1.6,0,0,1-.23,0,1.29,1.29,0,0,1-.19,0,1.17,1.17,0,0,1-.27-.05.66.66,0,0,1-.25.06,1,1,0,0,1-.35-.06l-.1,0a.87.87,0,0,1-.37-.06h0a.89.89,0,0,1-.44-.09l-.05,0a1.08,1.08,0,0,1-.33-.06l-.12,0a1,1,0,0,1-.5-.13h0a1,1,0,0,1-.56-.18h0a1,1,0,0,1-.53-.15,1,1,0,0,1-.42-.15,1.12,1.12,0,0,1-.45-.18.88.88,0,0,1-.54-.25,1.08,1.08,0,0,1-.34-.17.86.86,0,0,1-.54-.35,1,1,0,0,1-.45-.36.89.89,0,0,1-.5-.41.87.87,0,0,1-.38-.38,1,1,0,0,1-.39-.46.87.87,0,0,1-.31-.4,1.11,1.11,0,0,1-.37-.62,1.06,1.06,0,0,1-.19-.52,1,1,0,0,1-.2-.51,1.06,1.06,0,0,1-.18-.55,1.09,1.09,0,0,1-.24-.8,9,9,0,0,1-.13-1,1.06,1.06,0,0,1,.25-.89.88.88,0,0,1,.74-.52,1,1,0,0,1,.44-.1l.11,0a.77.77,0,0,1,.27-.07,1,1,0,0,1,.9.55,20,20,0,0,1,2.47,1.39c.88.52,1.73,1.08,2.61,1.6l2.73,1.62a15.54,15.54,0,0,1,2.38,1.57.76.76,0,0,1,.23.15.44.44,0,0,1,.35.24.47.47,0,0,1,.26.14A.49.49,0,0,1,183.79,212Z" transform="translate(-10.48 -11.9)"/></g><g id="Calque_5" data-name="Calque 5"><path class="cls-1" d="M159.57,186.9l-4,9.85s-13.37,15.38-44.38,3.05c0,0,4.91-9.52,4.4-14.19C115.58,185.61,130.43,199.18,159.57,186.9Z" transform="translate(-10.48 -11.9)"/></g><g id="Calque_6" data-name="Calque 6"><polygon class="cls-1" points="140.85 260.44 126.47 249.92 114.46 263.09 129.03 273.61 140.85 260.44"/></g><g id="Calque_7" data-name="Calque 7"><path class="cls-1" d="M271.22,248.32l-2.14,6.37s-11.37,4.69-8,9.44c0,0,11.72,5.93,2.8,14.14,0,0-7.48,8.34-21.28,10.23,0,0,9.24-3.9,12-8.49,0,0,2.91-4.78-4.55-7.06,0,0-2.4-7.49,4.41-14.19C254.45,258.76,259.51,253.92,271.22,248.32Z" transform="translate(-10.48 -11.9)"/></g><g id="Calque_8" data-name="Calque 8"><path class="cls-1" d="M127.37,37.2s23.06,22.49,3.49,41.3C130.86,78.5,114.26,66.25,127.37,37.2Z" transform="translate(-10.48 -11.9)"/></g><path class="cls-1" d="M128.42,80.92S120.34,53.81,80.14,52.4c0,0,12.73,4.1,15.32,11.58C95.46,64,99.76,85.81,128.42,80.92Z" transform="translate(-10.48 -11.9)"/><g id="Calque_9" data-name="Calque 9"><path class="cls-1" d="M115.38,56.31s4.52-21.94-34.69-31.48c0,0,8,9.65,8.9,13.58C89.59,38.41,92.52,56,115.38,56.31Z" transform="translate(-10.48 -11.9)"/></g></g></svg>