<svg id="Calque_1" data-name="Calque 1" xmlns="http://www.w3.org/2000/svg" viewBox="0 0 186.44 158.23"><defs><style>.cls-1{fill:#52c1de;}.cls-2{fill:#35204f;}.cls-3{fill:#8fd2e6;}.cls-4{isolation:isolate;}</style></defs><title>Logo alexsys</title><g id="Layer_1" data-name="Layer 1"><polygon class="cls-1" points="141.75 42.08 126.25 42.08 110.74 13.5 79.74 13.5 60.44 42.08 44.93 42.08 69.19 0 118.44 0 141.75 42.08"/><polygon class="cls-2" points="141.75 48.09 126.25 48.09 110.74 76.68 79.74 76.68 60.44 48.09 44.93 48.09 69.19 90.18 118.44 90.18 141.75 48.09"/><path class="cls-3" d="M123.53,69.12a8.44,8.44,0,0,1-3.48-1.79,6.9,6.9,0,0,1-1.69-2.22,4.84,4.84,0,0,1-.42-2.42,6.49,6.49,0,0,1,.64-2.85,7.57,7.57,0,0,1,1.79-2.32h0a6.74,6.74,0,0,1,5.91-1.37,5.07,5.07,0,0,1,1.58.63,6.78,6.78,0,0,1,1.37,1.06,8.35,8.35,0,0,1,1.16,1.47,1.59,1.59,0,0,1,.21.95,2.18,2.18,0,0,1-.53,1.27.56.56,0,0,1-.53.31,1.28,1.28,0,0,1-.63.11.78.78,0,0,1-.53-.11c-.21-.1-.31-.1-.42-.31s-.31-.21-.42-.42a1.77,1.77,0,0,0-.42-.53,2.08,2.08,0,0,0-1.06-.84,3.24,3.24,0,0,0-1.47-.32,3.64,3.64,0,0,0-1.16.21,3.72,3.72,0,0,0-1.06.63,4.27,4.27,0,0,0-.74,1.06,2.79,2.79,0,0,0-.31,1.26,2.54,2.54,0,0,0,.74,1.9,4.82,4.82,0,0,0,2.32,1.16,11.64,11.64,0,0,1,4.43,2.22A7.83,7.83,0,0,1,131,70.6a7,7,0,0,1,.63,2.85,7.57,7.57,0,0,1-2.74,6.11h0a7.34,7.34,0,0,1-5.06,1.9,11.16,11.16,0,0,1-1.9-.21,5.22,5.22,0,0,1-1.79-.74,5.88,5.88,0,0,1-1.58-1.16,9.61,9.61,0,0,1-1.38-1.47,1.81,1.81,0,0,1-.31-1.06,2.16,2.16,0,0,1,.53-1.26.85.85,0,0,1,.52-.32,1.3,1.3,0,0,1,.64-.11,1.83,1.83,0,0,1,1.47.74,4,4,0,0,0,1.69,1.58A4.84,4.84,0,0,0,124,78a4.39,4.39,0,0,0,1.69-.31,3.25,3.25,0,0,0,1.37-1,4.35,4.35,0,0,0,.95-1.48,5,5,0,0,0,.32-1.79,4.82,4.82,0,0,0-.32-1.69,4.67,4.67,0,0,0-1.26-1.58C125.64,69.86,124.59,69.44,123.53,69.12ZM96.85,80.62a1.63,1.63,0,0,1-1.58,1,1.43,1.43,0,0,1-.64-.1,2.14,2.14,0,0,1-.52-.32.87.87,0,0,1-.32-.53,1.28,1.28,0,0,1-.11-.63c0-.21.11-.53.11-.74l8.65-22.15A1.76,1.76,0,0,1,104.55,56a2.1,2.1,0,0,1,1.16,1.16l8.65,22.15a1.64,1.64,0,0,1,.1.74,1.39,1.39,0,0,1-.1.63,2.23,2.23,0,0,1-.32.53.6.6,0,0,1-.53.32,1.39,1.39,0,0,1-.63.1,1.62,1.62,0,0,1-1.58-1l-7.07-18.25Z" transform="translate(-19.22 -23.77)"/><g class="cls-4"><path class="cls-2" d="M109.09,178.59a2.8,2.8,0,0,1-.3,1.25,3.51,3.51,0,0,1-.9,1.08,4.52,4.52,0,0,1-1.46.78,6,6,0,0,1-2,.3,9.35,9.35,0,0,1-2.08-.22,9.06,9.06,0,0,1-1.71-.59l.67-1.32a7.57,7.57,0,0,0,.7.35c.28.12.57.23.88.33a8.16,8.16,0,0,0,1,.26,4.77,4.77,0,0,0,1,.1,5.74,5.74,0,0,0,1.1-.09,4,4,0,0,0,.76-.24,3,3,0,0,0,.3-.19,1,1,0,0,0,.27-.3,2,2,0,0,0,.18-.46,3.26,3.26,0,0,0,.06-.67,1.42,1.42,0,0,0-.27-.88,2.45,2.45,0,0,0-.73-.6,6.14,6.14,0,0,0-1-.45l-1.17-.39c-.39-.14-.78-.28-1.16-.45a4.18,4.18,0,0,1-1-.61,2.8,2.8,0,0,1-.73-.88,2.72,2.72,0,0,1-.28-1.26,2.07,2.07,0,0,1,.3-1,3.11,3.11,0,0,1,.85-.94,4.69,4.69,0,0,1,1.36-.69,5.79,5.79,0,0,1,1.84-.27,14.79,14.79,0,0,1,1.54.08c.49,0,1,.12,1.45.2l-.42,1.32c-.5-.14-1-.27-1.59-.38a8.63,8.63,0,0,0-1.55-.15,7.05,7.05,0,0,0-1,.06,2,2,0,0,0-.66.2,1.25,1.25,0,0,0-.41.44,1.73,1.73,0,0,0-.18.88,1.22,1.22,0,0,0,.28.8,2.39,2.39,0,0,0,.73.56,6,6,0,0,0,1,.43l1.18.4a11.84,11.84,0,0,1,1.17.46,4.24,4.24,0,0,1,1,.63,2.63,2.63,0,0,1,.73.89A2.77,2.77,0,0,1,109.09,178.59Z" transform="translate(-19.22 -23.77)"/><path class="cls-2" d="M124.33,176.2a6.5,6.5,0,0,1-.42,2.4,4.67,4.67,0,0,1-1.25,1.83,5.48,5.48,0,0,1-2.07,1.16,9.46,9.46,0,0,1-2.91.41,8.92,8.92,0,0,1-2.9-.42,5.33,5.33,0,0,1-2-1.17,4.81,4.81,0,0,1-1.14-1.83,7.43,7.43,0,0,1-.36-2.38,7,7,0,0,1,.37-2.37,4.58,4.58,0,0,1,1.16-1.79,5.26,5.26,0,0,1,2-1.13,9.53,9.53,0,0,1,2.89-.39,9.74,9.74,0,0,1,2.9.39,5.57,5.57,0,0,1,2.07,1.13,4.77,4.77,0,0,1,1.24,1.79A6.34,6.34,0,0,1,124.33,176.2Zm-2,0a7,7,0,0,0-.26-2,4,4,0,0,0-.84-1.52,3.71,3.71,0,0,0-1.44-1,5.68,5.68,0,0,0-2.09-.35,9.31,9.31,0,0,0-2,.19,4,4,0,0,0-1.45.55,1.65,1.65,0,0,0-.49.62,4.31,4.31,0,0,0-.32.94,8.31,8.31,0,0,0-.17,1.19c0,.42-.06.87-.06,1.33a8.65,8.65,0,0,0,.22,2,4.16,4.16,0,0,0,.73,1.56,3.39,3.39,0,0,0,1.36,1,5.21,5.21,0,0,0,2.11.37,10.21,10.21,0,0,0,2.07-.18,4.1,4.1,0,0,0,1.51-.65,1.52,1.52,0,0,0,.5-.62,5.23,5.23,0,0,0,.33-1,8.38,8.38,0,0,0,.19-1.2C122.32,177.07,122.34,176.63,122.34,176.2Z" transform="translate(-19.22 -23.77)"/><path class="cls-2" d="M127.31,181.84v-11.2h1.86V181h5.19l-.13.85Z" transform="translate(-19.22 -23.77)"/><path class="cls-2" d="M147.17,179.48a3.68,3.68,0,0,1-1.07,1.3,5.44,5.44,0,0,1-1.77.89,8.25,8.25,0,0,1-2.45.33,9.42,9.42,0,0,1-2.07-.21,4.44,4.44,0,0,1-1.58-.67,3.11,3.11,0,0,1-1-1.22,4.46,4.46,0,0,1-.35-1.85v-7.41h1.8v7.63a3.93,3.93,0,0,0,.22,1.39,2.13,2.13,0,0,0,.65.87,2.67,2.67,0,0,0,1,.45,7.07,7.07,0,0,0,1.46.13,8.74,8.74,0,0,0,1.8-.17,2.57,2.57,0,0,0,1.2-.52,1.89,1.89,0,0,0,.54-.88,4.75,4.75,0,0,0,.17-1.32v-7.58h1.79v7.25A3.6,3.6,0,0,1,147.17,179.48Z" transform="translate(-19.22 -23.77)"/><path class="cls-2" d="M153.58,181.84V171.5l-4.2-.05.13-.81h10.14l-.14.77-4.07.09v10.34Z" transform="translate(-19.22 -23.77)"/><path class="cls-2" d="M161.56,181.84v-11.2h1.85v11.2Z" transform="translate(-19.22 -23.77)"/><path class="cls-2" d="M179.39,176.2a6.3,6.3,0,0,1-.43,2.4,4.76,4.76,0,0,1-1.24,1.83,5.6,5.6,0,0,1-2.08,1.16,9.42,9.42,0,0,1-2.91.41,8.86,8.86,0,0,1-2.89-.42,5.25,5.25,0,0,1-2-1.17,4.71,4.71,0,0,1-1.15-1.83,7.43,7.43,0,0,1-.36-2.38,7,7,0,0,1,.37-2.37,4.58,4.58,0,0,1,1.16-1.79,5.3,5.3,0,0,1,2-1.13,9.46,9.46,0,0,1,2.88-.39,9.69,9.69,0,0,1,2.9.39,5.57,5.57,0,0,1,2.07,1.13,4.66,4.66,0,0,1,1.24,1.79A6.34,6.34,0,0,1,179.39,176.2Zm-2,0a6.68,6.68,0,0,0-.27-2,4,4,0,0,0-.84-1.52,3.64,3.64,0,0,0-1.44-1,5.68,5.68,0,0,0-2.09-.35,9.31,9.31,0,0,0-2,.19,3.87,3.87,0,0,0-1.44.55,1.67,1.67,0,0,0-.5.62,4.31,4.31,0,0,0-.32.94,8.31,8.31,0,0,0-.17,1.19c0,.42-.06.87-.06,1.33a8.65,8.65,0,0,0,.22,2,4.16,4.16,0,0,0,.73,1.56,3.39,3.39,0,0,0,1.36,1,5.21,5.21,0,0,0,2.11.37,10.21,10.21,0,0,0,2.07-.18,4.1,4.1,0,0,0,1.51-.65,1.52,1.52,0,0,0,.5-.62,5.23,5.23,0,0,0,.33-1,8.34,8.34,0,0,0,.2-1.2C177.38,177.07,177.4,176.63,177.4,176.2Z" transform="translate(-19.22 -23.77)"/><path class="cls-2" d="M193.18,181.9l-9.65-8.74h0c0,.83,0,1.58,0,2.26,0,.29,0,.58,0,.87s0,.55,0,.79,0,.45,0,.63v4.13h-1.23V170.56h.82l9.67,8.71h0c0-.76,0-1.48,0-2.13,0-.28,0-.56,0-.85s0-.55,0-.8,0-.48,0-.67v-4.17H194V181.9Z" transform="translate(-19.22 -23.77)"/><path class="cls-2" d="M204.92,178.59a2.69,2.69,0,0,1-.31,1.25,3.25,3.25,0,0,1-.9,1.08,4.36,4.36,0,0,1-1.45.78,6,6,0,0,1-2,.3,9.28,9.28,0,0,1-2.08-.22,9.42,9.42,0,0,1-1.72-.59l.67-1.32a7.87,7.87,0,0,0,.71.35c.28.12.57.23.88.33a7.25,7.25,0,0,0,1,.26,4.7,4.7,0,0,0,1,.1,5.89,5.89,0,0,0,1.1-.09,3.69,3.69,0,0,0,.75-.24l.31-.19a.86.86,0,0,0,.26-.3,1.38,1.38,0,0,0,.18-.46,2.65,2.65,0,0,0,.07-.67,1.36,1.36,0,0,0-.28-.88,2.4,2.4,0,0,0-.72-.6,6.52,6.52,0,0,0-1-.45l-1.17-.39c-.4-.14-.79-.28-1.17-.45a4.59,4.59,0,0,1-1-.61,2.9,2.9,0,0,1-.72-.88,2.61,2.61,0,0,1-.28-1.26,2.15,2.15,0,0,1,.29-1,3.24,3.24,0,0,1,.85-.94,4.82,4.82,0,0,1,1.36-.69,5.84,5.84,0,0,1,1.84-.27,15,15,0,0,1,1.55.08c.48,0,1,.12,1.44.2l-.41,1.32c-.51-.14-1-.27-1.59-.38a8.72,8.72,0,0,0-1.55-.15,7.31,7.31,0,0,0-1,.06,2,2,0,0,0-.65.2,1.37,1.37,0,0,0-.42.44,1.85,1.85,0,0,0-.17.88,1.21,1.21,0,0,0,.27.8,2.66,2.66,0,0,0,.73.56,6.13,6.13,0,0,0,1,.43l1.18.4a11.84,11.84,0,0,1,1.17.46,4.44,4.44,0,0,1,1,.63,2.88,2.88,0,0,1,.73.89A2.77,2.77,0,0,1,204.92,178.59Z" transform="translate(-19.22 -23.77)"/></g><path class="cls-1" d="M43.55,162.88,39.72,153l-12.29.15-4,9.77H19.22l13-29.17,6.45-1L50.7,162.88Zm-4.88-12.7-4.92-12.71-5.17,12.71Z" transform="translate(-19.22 -23.77)"/><path class="cls-1" d="M54.6,162.88V133.45h6.67v26.32H73.69l-.32,3.11Z" transform="translate(-19.22 -23.77)"/><path class="cls-1" d="M98.31,162.88H78.61V133.45h19l-.32,3-12,.14v9.57l11.31.12L96.27,149l-11,.23v10.52l13.35.23Z" transform="translate(-19.22 -23.77)"/><path class="cls-1" d="M117.66,146.18l12,16.7h-7.51l-8.52-12.19-9,12.19h-4.38l11.47-14.57-10.6-14.86h7.5l7,10.32,7.48-10.32h4.37Z" transform="translate(-19.22 -23.77)"/><path class="cls-1" d="M153.26,154.26a6.49,6.49,0,0,1-.91,3.22,9.73,9.73,0,0,1-2.58,2.9,14.13,14.13,0,0,1-4,2.1,16.57,16.57,0,0,1-5.3.8,28.73,28.73,0,0,1-2.92-.14,20.48,20.48,0,0,1-2.51-.43c-.79-.2-1.54-.42-2.27-.68s-1.45-.55-2.17-.88l1.63-4.36a12.77,12.77,0,0,0,1.9.9c.8.32,1.65.61,2.55.88s1.83.49,2.77.67a13.58,13.58,0,0,0,2.55.28,11.77,11.77,0,0,0,4-.52,2.32,2.32,0,0,0,1.2-1.29,6.4,6.4,0,0,0,.46-2.65,2.75,2.75,0,0,0-.69-1.91,6.13,6.13,0,0,0-1.8-1.34,17.55,17.55,0,0,0-2.55-1c-1-.31-1.94-.63-2.92-1a28.52,28.52,0,0,1-2.93-1.19,10.71,10.71,0,0,1-2.55-1.67,7.63,7.63,0,0,1-1.81-2.38,7.71,7.71,0,0,1-.68-3.38,5.75,5.75,0,0,1,.78-2.73,8.42,8.42,0,0,1,2.28-2.61,12.86,12.86,0,0,1,3.69-2,15.13,15.13,0,0,1,5-.77,42.61,42.61,0,0,1,4.32.2c1.38.13,2.71.3,4,.52l-1,4.36c-.62-.19-1.3-.37-2.06-.54s-1.53-.32-2.31-.45-1.56-.22-2.3-.3a18.26,18.26,0,0,0-3.91,0,4.74,4.74,0,0,0-1.65.41,1.9,1.9,0,0,0-.92,1.09,5.21,5.21,0,0,0-.29,1.87,2.69,2.69,0,0,0,.68,1.87,5.87,5.87,0,0,0,1.81,1.29,18.31,18.31,0,0,0,2.55,1q1.44.47,2.94,1a31.3,31.3,0,0,1,2.94,1.21,10,10,0,0,1,2.55,1.69,7.86,7.86,0,0,1,1.81,2.46A8.15,8.15,0,0,1,153.26,154.26Z" transform="translate(-19.22 -23.77)"/><path class="cls-1" d="M171.78,162.88h-6.67v-11.3l-10.67-18.13H162l8.05,14.43,8.33-14.43h4.06l-10.7,18.13Z" transform="translate(-19.22 -23.77)"/><path class="cls-1" d="M205.66,154.26a6.49,6.49,0,0,1-.91,3.22,9.77,9.77,0,0,1-2.59,2.9,14,14,0,0,1-4,2.1,16.53,16.53,0,0,1-5.3.8,28.88,28.88,0,0,1-2.92-.14,20.31,20.31,0,0,1-2.5-.43c-.79-.2-1.55-.42-2.27-.68s-1.45-.55-2.17-.88l1.62-4.36a13,13,0,0,0,1.91.9c.79.32,1.64.61,2.55.88a27.77,27.77,0,0,0,2.76.67,13.77,13.77,0,0,0,2.56.28,11.85,11.85,0,0,0,4-.52,2.28,2.28,0,0,0,1.19-1.29,6.39,6.39,0,0,0,.47-2.65,2.75,2.75,0,0,0-.69-1.91,6.4,6.4,0,0,0-1.8-1.34,17.7,17.7,0,0,0-2.56-1c-1-.31-1.93-.63-2.92-1a29.3,29.3,0,0,1-2.92-1.19,10.77,10.77,0,0,1-2.56-1.67,7.76,7.76,0,0,1-1.8-2.38,7.57,7.57,0,0,1-.69-3.38,5.66,5.66,0,0,1,.79-2.73,8.42,8.42,0,0,1,2.28-2.61,12.86,12.86,0,0,1,3.69-2,15.07,15.07,0,0,1,5-.77,42.67,42.67,0,0,1,4.33.2c1.37.13,2.71.3,4,.52l-1,4.36c-.62-.19-1.31-.37-2.06-.54s-1.53-.32-2.32-.45-1.55-.22-2.3-.3a18.4,18.4,0,0,0-2-.11,18.64,18.64,0,0,0-1.93.1,4.62,4.62,0,0,0-1.64.41,1.88,1.88,0,0,0-.93,1.09,5.44,5.44,0,0,0-.29,1.87,2.65,2.65,0,0,0,.69,1.87,5.94,5.94,0,0,0,1.8,1.29,19,19,0,0,0,2.56,1q1.44.47,2.94,1a30.06,30.06,0,0,1,2.93,1.21,10.25,10.25,0,0,1,2.56,1.69,7.63,7.63,0,0,1,2.49,5.94Z" transform="translate(-19.22 -23.77)"/></g></svg>