<?xml version="1.0" encoding="utf-8"?>
<!-- Generator: Adobe Illustrator 24.0.0, SVG Export Plug-In . SVG Version: 6.00 Build 0)  -->
<svg version="1.1" id="Calque_1_-_copie_3" xmlns="http://www.w3.org/2000/svg" xmlns:xlink="http://www.w3.org/1999/xlink" x="0px"
	 y="0px" viewBox="0 0 1637.3 1478.1" style="enable-background:new 0 0 1637.3 1478.1;" xml:space="preserve">
<style type="text/css">
	.st0{fill:#54C1DE;}
	.st1{fill:#35204F;}
	.st2{display:none;}
	.st3{display:inline;fill:#1B588F;}
	.st4{display:none;fill:#54C1DE;}
	.st5{display:none;fill:#020203;}
</style>
<g id="XMLID_13_">
	<g>
		<path class="st0" d="M421.9,1326.3l37.1-107.5h36.7l37.2,107.5h-29.2l-5.4-19.2h-41.6l-5.6,19.2H421.9z M462.9,1286.1h29.2
			l-10.9-35.5c-0.3-1.1-0.8-2.8-1.4-5.2c-0.6-2.4-1.3-5.5-2.3-9.3c-0.6,2.6-1.3,5.2-1.9,7.6s-1.2,4.7-1.9,6.9L462.9,1286.1z"/>
		<path class="st0" d="M543.1,1326.3v-107.5h29.3v82.4h36.4v25.1H543.1z"/>
		<path class="st0" d="M793.6,1326.3h-27.4l-6.3-46.5c-0.4-3.3-0.8-6.9-1.2-10.9s-0.7-8.4-1-13.1c-0.7,4.6-2,10.2-4,17
			c-0.4,1.4-0.8,2.5-1,3.2l-14.6,50.4h-19.5L704,1276c-0.2-0.7-0.5-1.7-0.9-3.2c-2.1-6.8-3.4-12.5-4-17c-0.3,4.1-0.6,8.1-1,12.1
			s-0.9,8-1.4,11.9l-6.3,46.5H663l16.6-107.5h29l16.2,55.5c0.1,0.4,0.3,1,0.6,1.9c1.5,4.9,2.5,9.2,2.9,12.7c0.2-1.9,0.6-4,1.1-6.4
			c0.5-2.3,1.3-5.1,2.2-8.4l16.4-55.3h29.1L793.6,1326.3z"/>
		<path class="st0" d="M796.7,1326.3l37.1-107.5h36.7l37.2,107.5h-29.2l-5.4-19.2h-41.6l-5.6,19.2H796.7z M837.8,1286.1H867
			l-10.9-35.5c-0.3-1.1-0.8-2.8-1.4-5.2c-0.6-2.4-1.3-5.5-2.3-9.3c-0.6,2.6-1.3,5.2-1.9,7.6c-0.6,2.4-1.2,4.7-1.9,6.9L837.8,1286.1z
			"/>
		<path class="st0" d="M918,1326.3v-107.5h29.3v41.8h39.1v-41.8h29.4v107.5h-29.4v-43.8h-39.1v43.8H918z"/>
		<path class="st0" d="M1026,1326.3l37.1-107.5h36.7l37.2,107.5h-29.2l-5.4-19.2h-41.6l-5.6,19.2H1026z M1067,1286.1h29.2
			l-10.9-35.5c-0.3-1.1-0.8-2.8-1.4-5.2c-0.6-2.4-1.3-5.5-2.3-9.3c-0.6,2.6-1.3,5.2-1.9,7.6s-1.2,4.7-1.9,6.9L1067,1286.1z"/>
		<path class="st0" d="M1147.3,1326.3v-107.5h29.3v82.4h36.4v25.1H1147.3z"/>
	</g>
	<g id="XMLID_55_">
		<path id="XMLID_56_" class="st1" d="M321.7,1062.9l44.8-25.8c7.8-4.5,17.5-4.5,25.3,0l159.6,92.1c4.7,2.7,10.5,2.7,15.2,0
			l170.8-98.6c4.7-2.7,7.6-7.7,7.6-13.2V820.3c0-5.4-2.9-10.4-7.6-13.2l-170.8-98.6c-4.7-2.7-10.5-2.7-15.2,0l-170.8,98.6
			c-4.7,2.7-7.6,7.7-7.6,13.2v183c0,9-4.8,17.4-12.7,21.9l-44.8,25.8l-50.7,29.2c0,0,33.8-23.6,47.5-58.4c2.1-5.3,3.1-11,3.1-16.7
			V787.2c0-5.4,2.9-10.4,7.6-13.2l228.2-131.7c4.7-2.7,10.5-2.7,15.2,0L794.7,774c4.7,2.7,7.6,7.7,7.6,13.2v263.5
			c0,5.4-2.9,10.4-7.6,13.2l-228.2,131.7c-4.7,2.7-10.5,2.7-15.2,0l-193.1-111.5c-8.1-4.6-17.1-7.2-26.4-7.5
			c-14.3-0.4-36.3,2-60.3,15.3L321.7,1062.9L321.7,1062.9z"/>
		<g>
			<g>
				<path class="st0" d="M702.2,973.8c0-0.6-0.2-1.2-0.4-1.7l-24.6-49.4v-61.5c0-8.4-6.9-15.3-15.3-15.3h-9.6v-39.7
					c0-3.7-4.7-5.5-7.2-2.8l-10.7,11.7l-10.7-11.7c-1.6-1.8-4.5-1.8-6.1,0l-10.7,11.7L596,803.4c-2.5-2.7-7.2-0.9-7.2,2.8v39.7
					h-20.7c-2.3,0-4.1,1.9-4.1,4.1c0,2.3,1.9,4.1,4.1,4.1h93.7c3.9,0,7,3.1,7,7v58.3H453.6v-58.3c0-3.9,3.1-7,7-7h90.9
					c2.3,0,4.1-1.9,4.1-4.1c0-2.3-1.9-4.1-4.1-4.1h-23.4v-27.7h23.4c2.3,0,4.1-1.9,4.1-4.1V780c0-2.3-1.9-4.1-4.1-4.1h-75.8
					c-2.3,0-4.1,1.9-4.1,4.1v33.9c0,2.3,1.9,4.1,4.1,4.1h22.4v27.7h-37.5c-8.4,0-15.3,6.9-15.3,15.3v61.5L420.7,972
					c-0.3,0.6-0.4,1.2-0.4,1.8v47.4c0,8.4,6.9,15.3,15.3,15.3h29.8c2.3,0,4.1-1.9,4.1-4.1c0-2.3-1.9-4.1-4.1-4.1h-29.8
					c-3.9,0-7-3.1-7-7V978h204.2c2.3,0,4.1-1.9,4.1-4.1c0-2.3-1.9-4.1-4.1-4.1H431.1l21-42h218.3l21,42h-42c-2.3,0-4.1,1.9-4.1,4.1
					c0,2.3,1.9,4.1,4.1,4.1H694v43.3c0,3.9-3.1,7-7,7H482c-2.3,0-4.1,1.9-4.1,4.1c0,2.3,1.9,4.1,4.1,4.1h205
					c8.4,0,15.3-6.9,15.3-15.3L702.2,973.8L702.2,973.8z M643.9,845.8H597v-29l6.6,7.2c1.6,1.8,4.5,1.8,6.1,0l10.7-11.7l10.7,11.7
					c1.6,1.8,4.5,1.8,6.1,0l6.6-7.2L643.9,845.8L643.9,845.8z M519.9,845.8h-13.5v-27.7h13.5V845.8z M479.9,809.8v-25.6h67.6v25.6
					H479.9z"/>
				<path class="st0" d="M486.4,946.5c2.3,0,4.1-1.9,4.1-4.1c0-2.3-1.9-4.1-4.1-4.1h-9.8c-2.3,0-4.1,1.9-4.1,4.1
					c0,2.3,1.9,4.1,4.1,4.1H486.4z"/>
				<path class="st0" d="M470.5,953h-9.8c-2.3,0-4.1,1.9-4.1,4.1c0,2.3,1.9,4.1,4.1,4.1h9.8c2.3,0,4.1-1.9,4.1-4.1
					C474.7,954.8,472.8,953,470.5,953z"/>
				<path class="st0" d="M518.1,946.5c2.3,0,4.1-1.9,4.1-4.1c0-2.3-1.9-4.1-4.1-4.1h-9.8c-2.3,0-4.1,1.9-4.1,4.1
					c0,2.3,1.9,4.1,4.1,4.1H518.1z"/>
				<path class="st0" d="M492.4,961.2h9.8c2.3,0,4.1-1.9,4.1-4.1s-1.9-4.1-4.1-4.1h-9.8c-2.3,0-4.1,1.9-4.1,4.1
					C488.2,959.4,490.1,961.2,492.4,961.2z"/>
				<path class="st0" d="M549.7,946.5c2.3,0,4.1-1.9,4.1-4.1c0-2.3-1.9-4.1-4.1-4.1h-9.8c-2.3,0-4.1,1.9-4.1,4.1
					c0,2.3,1.9,4.1,4.1,4.1H549.7z"/>
				<path class="st0" d="M524.1,961.2h9.8c2.3,0,4.1-1.9,4.1-4.1s-1.9-4.1-4.1-4.1h-9.8c-2.3,0-4.1,1.9-4.1,4.1
					S521.8,961.2,524.1,961.2z"/>
				<path class="st0" d="M582,946.5c2.3,0,4.1-1.9,4.1-4.1c0-2.3-1.9-4.1-4.1-4.1h-9.8c-2.3,0-4.1,1.9-4.1,4.1
					c0,2.3,1.9,4.1,4.1,4.1H582z"/>
				<path class="st0" d="M556.3,961.2h9.8c2.3,0,4.1-1.9,4.1-4.1s-1.9-4.1-4.1-4.1h-9.8c-2.3,0-4.1,1.9-4.1,4.1
					S554,961.2,556.3,961.2L556.3,961.2z"/>
				<path class="st0" d="M613.7,946.5c2.3,0,4.1-1.9,4.1-4.1c0-2.3-1.9-4.1-4.1-4.1h-9.8c-2.3,0-4.1,1.9-4.1,4.1
					c0,2.3,1.9,4.1,4.1,4.1H613.7z"/>
				<path class="st0" d="M588,961.2h9.8c2.3,0,4.1-1.9,4.1-4.1s-1.9-4.1-4.1-4.1H588c-2.3,0-4.1,1.9-4.1,4.1S585.7,961.2,588,961.2z
					"/>
				<path class="st0" d="M646,946.5c2.3,0,4.1-1.9,4.1-4.1c0-2.3-1.9-4.1-4.1-4.1h-9.8c-2.3,0-4.1,1.9-4.1,4.1
					c0,2.3,1.9,4.1,4.1,4.1H646z"/>
				<path class="st0" d="M620.3,961.2h9.8c2.3,0,4.1-1.9,4.1-4.1s-1.9-4.1-4.1-4.1h-9.8c-2.3,0-4.1,1.9-4.1,4.1
					S618,961.2,620.3,961.2z"/>
				<path class="st0" d="M652,961.2h9.8c2.3,0,4.1-1.9,4.1-4.1s-1.9-4.1-4.1-4.1H652c-2.3,0-4.1,1.9-4.1,4.1
					C647.8,959.4,649.7,961.2,652,961.2z"/>
				<path class="st0" d="M584.2,1016c7.1,0,12.8-5.8,12.8-12.8s-5.8-12.8-12.8-12.8h-45.9c-7.1,0-12.8,5.8-12.8,12.8
					c0,7.1,5.8,12.8,12.8,12.8H584.2z M533.7,1003.2c0-2.5,2.1-4.6,4.6-4.6h45.9c2.5,0,4.6,2.1,4.6,4.6s-2.1,4.6-4.6,4.6h-45.9
					C535.8,1007.7,533.7,1005.7,533.7,1003.2z"/>
				<path class="st0" d="M551.6,865.7h-75.8c-2.3,0-4.1,1.9-4.1,4.1v33.9c0,2.3,1.9,4.1,4.1,4.1h75.8c2.3,0,4.1-1.9,4.1-4.1v-33.9
					C555.7,867.5,553.9,865.7,551.6,865.7z M547.4,899.6h-67.6V874h67.6V899.6z"/>
				<path class="st0" d="M578.3,881.9h9.8c2.3,0,4.1-1.9,4.1-4.1c0-2.3-1.9-4.1-4.1-4.1h-9.8c-2.3,0-4.1,1.9-4.1,4.1
					C574.2,880.1,576.1,881.9,578.3,881.9z"/>
				<path class="st0" d="M578.3,899.9h9.8c2.3,0,4.1-1.9,4.1-4.1c0-2.3-1.9-4.1-4.1-4.1h-9.8c-2.3,0-4.1,1.9-4.1,4.1
					S576.1,899.9,578.3,899.9z"/>
				<path class="st0" d="M610,881.9h9.8c2.3,0,4.1-1.9,4.1-4.1c0-2.3-1.9-4.1-4.1-4.1H610c-2.3,0-4.1,1.9-4.1,4.1
					C605.9,880.1,607.7,881.9,610,881.9z"/>
				<path class="st0" d="M610,899.9h9.8c2.3,0,4.1-1.9,4.1-4.1c0-2.3-1.9-4.1-4.1-4.1H610c-2.3,0-4.1,1.9-4.1,4.1
					S607.7,899.9,610,899.9z"/>
				<path class="st0" d="M641.7,881.9h9.8c2.3,0,4.1-1.9,4.1-4.1c0-2.3-1.9-4.1-4.1-4.1h-9.8c-2.3,0-4.1,1.9-4.1,4.1
					C637.6,880.1,639.4,881.9,641.7,881.9z"/>
				<path class="st0" d="M641.7,899.9h9.8c2.3,0,4.1-1.9,4.1-4.1c0-2.3-1.9-4.1-4.1-4.1h-9.8c-2.3,0-4.1,1.9-4.1,4.1
					C637.6,898,639.4,899.9,641.7,899.9z"/>
			</g>
		</g>
	</g>
	<g id="XMLID_49_">
		<g id="XMLID_51_" class="st2">
			<path id="XMLID_54_" class="st3" d="M1071.3,911.2l145.6-84l-136.4-78.8c-5.7-3.3-12.6-3.3-18.3,0l-136.4,78.8L1071.3,911.2z"/>
			<path id="XMLID_53_" class="st3" d="M1064.6,922.7l-145.6-84v157.5c0,6.5,3.5,12.6,9.2,15.8l136.4,78.8V922.7z"/>
			<path id="XMLID_52_" class="st3" d="M1077.9,922.7v168.1l136.4-78.8c5.7-3.3,9.2-9.3,9.2-15.8V838.7L1077.9,922.7z"/>
		</g>
		<g>
			<path class="st4" d="M1193.7,956.5h-35.5V898c0-2.1-1.7-3.8-3.8-3.8c-2.1,0-3.8,1.7-3.8,3.8v58.5c-7.8,0-58,0-66.4,0v-16.6
				c0-2.1-1.7-3.8-3.8-3.8H1042c0-4.7,0-83.3,0-91.1h43.4v15.7c0,3.4,2.7,6.1,6.1,6.1h9.6c3.4,0,6.1-2.7,6.1-6.1V845h43.4v37.7
				c0,2.1,1.7,3.8,3.8,3.8c2.1,0,3.8-1.7,3.8-3.8V844c0-3.7-3-6.7-6.7-6.7c-18.8,0-63,0-80.4,0v-54c0-3.7-3-6.7-6.7-6.7h-70.2
				c-3.7,0-6.7,3-6.7,6.7v24.2c0,2.1,1.7,3.8,3.8,3.8s3.8-1.7,3.8-3.8v-23.2h23.2V800c0,3.4,2.7,6.1,6.1,6.1h9.6
				c3.4,0,6.1-2.7,6.1-6.1v-15.7h23.2v53H1038c-2.1,0-3.8,1.7-3.8,3.8V873h-39.1v-50.2c0-2.1-1.7-3.8-3.8-3.8s-3.8,1.7-3.8,3.8V873
				H965c-3.7,0-6.7,3-6.7,6.7v56.4H946c-3.7,0-6.7,3-6.7,6.7v90.8c0,2.1,1.7,3.8,3.8,3.8h40.5c2.1,0,3.8-1.7,3.8-3.8
				c0-2.1-1.7-3.8-3.8-3.8H947v-86h53.8v15.7c0,3.4,2.7,6.1,6.1,6.1h9.6c3.4,0,6.1-2.7,6.1-6.1v-15.7h53.8v86H999
				c-2.1,0-3.8,1.7-3.8,3.8c0,2.1,1.7,3.8,3.8,3.8h197.5c2.1,0,3.8-1.7,3.8-3.8v-70.4C1200.4,959.5,1197.4,956.5,1193.7,956.5
				L1193.7,956.5z M1032.6,798.5h-6.5v-14.2h6.5V798.5z M1099.5,845v14.2h-6.5V845H1099.5z M996.9,880.7h6.5v14.2h-6.5V880.7z
				 M966.1,880.7h23.2v15.7c0,3.4,2.7,6.1,6.1,6.1h9.6c3.4,0,6.1-2.7,6.1-6.1v-15.7h23.2v55.4c-14.8,0-55.9,0-68.2,0L966.1,880.7
				L966.1,880.7z M1015.1,957.9h-6.5v-14.2h6.5V957.9z M1141.7,964.1v14.2h-6.5v-14.2H1141.7z M1192.7,1029.8h-108.6v-65.6h43.4
				v15.7c0,3.4,2.7,6.1,6.1,6.1h9.6c3.4,0,6.1-2.7,6.1-6.1v-15.7h43.4V1029.8L1192.7,1029.8z"/>
			<g>
				<path class="st0" d="M1106.5,907.3c-1.6,0-3.1-0.6-4.3-1.8l-16.8-16.9c-1.8-1.8-2.2-4.6-1.1-7c7.3-15.3,23.7-21,24.4-21.2
					c1.1-0.4,2.3,0.2,2.6,1.3c0.4,1.1-0.2,2.3-1.3,2.6c-0.2,0.1-15.4,5.4-22,19.1c-0.4,0.8-0.2,1.7,0.3,2.3l16.8,16.9
					c0.5,0.5,1.3,0.7,2,0.4l15.2-5.6c1.1-0.4,2.3,0.2,2.7,1.2c0.4,1.1-0.2,2.3-1.2,2.7l-15.2,5.6
					C1107.9,907.2,1107.2,907.3,1106.5,907.3z"/>
				<path class="st0" d="M1089,916.4c-0.8,0-1.6-0.1-2.4-0.5c-2.1-0.8-3.6-2.6-3.9-4.8c-2.1-12.2,3.7-23,3.9-23.4
					c0.3-0.6,0.9-1,1.5-1.1s1.3,0.1,1.8,0.6l15.3,15.4c0.4,0.4,0.6,1,0.6,1.6s-0.3,1.1-0.8,1.5l-12,9.3
					C1091.8,915.9,1090.4,916.4,1089,916.4z M1089.1,892.3c-1.4,3.7-3.6,10.7-2.3,18.1c0.2,1.1,1,1.5,1.4,1.6
					c0.8,0.3,1.6,0.2,2.3-0.3l10.1-7.9L1089.1,892.3z"/>
				<path class="st0" d="M1136.5,904.4c-2.7,0-5.4-0.1-8.1-0.2c-4-0.2-7.5-2.9-8.8-6.6l-12.2-34.4c-1.7-4.8,0.7-10.4,5.3-12.5
					c10.7-4.7,23.2-4.8,23.7-4.7c0.5,0,13,0,23.7,4.7c4.6,2.1,7,7.6,5.3,12.5l-12.2,34.5c-1.3,3.8-4.8,6.4-8.8,6.6h-0.2
					C1141.8,904.3,1139.2,904.4,1136.5,904.4z M1114.5,854.4c-2.7,1.2-4.1,4.5-3.1,7.3l12.2,34.4c0.8,2.2,2.8,3.7,5.2,3.9
					c5.1,0.3,10.3,0.3,15.4,0h0.2c2.4-0.1,4.4-1.7,5.2-3.9l12.2-34.5c1-2.8-0.4-6.1-3.1-7.3c-9.8-4.4-21.8-4.4-22-4.4
					C1136.3,850,1124.3,850.1,1114.5,854.4L1114.5,854.4z"/>
				<path class="st0" d="M1166.5,907.3c-0.7,0-1.4-0.1-2.1-0.4l-15.2-5.6c-1.1-0.4-1.6-1.6-1.2-2.7c0.4-1.1,1.6-1.6,2.7-1.2
					l15.2,5.6c0.7,0.3,1.5,0.1,2-0.4l16.8-16.9c0.6-0.6,0.7-1.5,0.3-2.3c-6.6-13.7-21.9-19.1-22-19.1c-1.1-0.4-1.7-1.5-1.3-2.6
					c0.4-1.1,1.5-1.7,2.6-1.3c0.7,0.2,17.1,6,24.4,21.2c1.1,2.4,0.7,5.2-1.1,7l-16.8,16.9C1169.7,906.7,1168.1,907.3,1166.5,907.3z"
					/>
				<path class="st0" d="M1184,916.4c-1.4,0-2.8-0.5-3.9-1.4l-12-9.3c-0.5-0.4-0.8-0.9-0.8-1.5s0.2-1.2,0.6-1.6l15.3-15.4
					c0.5-0.5,1.1-0.7,1.8-0.6c0.6,0.1,1.2,0.5,1.5,1.1c0.2,0.5,6,11.2,3.9,23.4c-0.4,2.2-1.9,4-3.9,4.8
					C1185.6,916.2,1184.8,916.4,1184,916.4z M1172.5,903.9l10.1,7.9c0.6,0.5,1.5,0.6,2.3,0.3c0.3-0.1,1.2-0.6,1.4-1.6
					c1.3-7.5-0.8-14.5-2.3-18.1L1172.5,903.9z"/>
				<path class="st0" d="M1143.5,835c-0.4,0-0.9-0.1-1.2-0.4l-13-9.8c-1.9-1.4-2.8-3.8-2.3-6.1l5.2-23.2c0.6-2.5,2.7-4.4,5.3-4.7
					c16.8-2.1,30.5,8.6,31,9.1c0.9,0.7,1,2,0.3,2.9s-2,1-2.9,0.3c-0.1-0.1-12.9-10.1-28-8.2c-0.9,0.1-1.6,0.7-1.7,1.5l-5.2,23.2
					c-0.2,0.7,0.1,1.5,0.7,1.9l13,9.8c0.9,0.7,1.1,2,0.4,2.9C1144.7,834.7,1144.1,835,1143.5,835z"/>
				<path class="st0" d="M1129,821.2c-0.2,0-0.5,0-0.7-0.1L1114,816c-2.2-0.8-3.7-2.6-4.2-4.8c-0.4-2.2,0.3-4.4,1.9-5.9
					c9.1-8.3,21.3-9.3,21.8-9.4c0.7-0.1,1.3,0.2,1.7,0.7c0.4,0.5,0.6,1.2,0.5,1.8l-4.7,21.2c-0.1,0.6-0.5,1.1-1,1.4
					C1129.7,821.1,1129.4,821.2,1129,821.2z M1131.1,800.4c-3.9,0.8-10.9,2.8-16.5,7.9c-0.8,0.7-0.7,1.7-0.6,2
					c0.2,0.8,0.7,1.5,1.5,1.8l12.1,4.3L1131.1,800.4z"/>
				<path class="st0" d="M1170,855.7c-0.9,0-1.8-0.6-2-1.6c-0.3-1.1,0.4-2.2,1.5-2.5l26.4-6.5c2.9-0.7,4.9-3.7,4.5-6.5
					c-1.6-10.7-8.1-20.8-8.2-20.9c-0.1-0.1-6.6-10.2-15.6-16.2c-2.4-1.6-6-1-7.8,1.3l-22.4,28.8c-1.4,1.9-1.6,4.4-0.5,6.4l0.5,0.8
					c0.3,0.5,0.4,0.7,0.9,1.6c0.6,1,0.3,2.3-0.7,2.8c-1,0.6-2.3,0.3-2.8-0.7c-0.5-0.9-0.7-1.2-1-1.7l-0.5-0.8c-2-3.5-1.6-7.8,0.8-11
					l22.4-28.8c3.1-4,9.1-5,13.4-2.2c9.7,6.4,16.5,17,16.8,17.4s7,11,8.8,22.5c0.8,5-2.6,10-7.6,11.2l-26.4,6.5
					C1170.3,855.6,1170.2,855.7,1170,855.7z"/>
				<path class="st0" d="M1193.3,877.2c-0.3,0-0.6-0.1-0.9-0.2c-1-0.5-1.4-1.8-0.9-2.8c6.4-12.5,3-26.5,3-26.7
					c-0.3-1.1,0.4-2.2,1.5-2.5s2.2,0.4,2.5,1.5c0.2,0.6,3.7,15.7-3.3,29.6C1194.8,876.8,1194,877.2,1193.3,877.2z"/>
				<path class="st0" d="M1128.9,890.8c-0.9,0-1.7-0.6-2-1.5l-8.1-26.3c-0.3-1.1,0.3-2.3,1.4-2.6s2.3,0.3,2.6,1.4l8.1,26.3
					c0.3,1.1-0.3,2.3-1.4,2.6C1129.3,890.7,1129.1,890.8,1128.9,890.8z"/>
				<path class="st0" d="M1156.6,835c-0.5,0-0.9-0.1-1.3-0.5c-0.9-0.7-1-2-0.3-2.9l16.2-20.2c0.7-0.9,2-1,2.9-0.3s1,2,0.3,2.9
					l-16.2,20.2C1157.8,834.7,1157.2,835,1156.6,835z"/>
			</g>
			<g>
				<path class="st0" d="M1019.8,902.3h-46.5c-5.4,0-10.6-2.6-13.9-6.9l-4.6-6.1c-0.5-0.6-0.6-1.5-0.2-2.2c0.4-0.7,1.1-1.2,1.9-1.2
					h80c0.8,0,1.5,0.4,1.9,1.2c0.4,0.7,0.3,1.6-0.2,2.2l-4.6,6.1C1030.4,899.7,1025.2,902.3,1019.8,902.3z M960.8,890.1l2.1,2.8
					c2.5,3.3,6.4,5.3,10.5,5.3h46.5c4.1,0,8-2,10.5-5.3l2.1-2.8H960.8z"/>
				<path class="st0" d="M1009.2,890.1H984c-0.4,0-0.7-0.1-1-0.3l-3-1.7c-16.1-9-27.4-29.2-27.4-49.3c0-1.2,0.9-2.1,2.1-2.1h83.8
					c1.2,0,2.1,0.9,2.1,2.1c0,20.1-11.3,40.3-27.4,49.3l-3,1.7C1009.9,890,1009.5,890.1,1009.2,890.1z M984.5,885.9h24.1l2.5-1.4
					c14.3-7.9,24.5-25.6,25.2-43.5h-79.6c0.7,17.9,10.9,35.6,25.2,43.5L984.5,885.9z"/>
				<path class="st5" d="M1013.6,876c-1,0-1.8-0.8-1.8-1.8v-10c0-1,0.8-1.8,1.8-1.8s1.8,0.8,1.8,1.8v10
					C1015.4,875.2,1014.6,876,1013.6,876z"/>
				<path class="st5" d="M1021.2,890.8H1006c-1,0-1.8-0.8-1.8-1.8v-9c0-0.3,0.1-0.6,0.2-0.8l2.9-5.8c0.3-0.6,0.9-1,1.6-1h9.3
					c0.7,0,1.3,0.4,1.6,1l2.9,5.8c0.1,0.3,0.2,0.5,0.2,0.8v9C1023,890,1022.2,890.8,1021.2,890.8z M1007.8,887.2h11.6v-6.8l-2.3-4.5
					h-7.1l-2.3,4.5L1007.8,887.2L1007.8,887.2z"/>
				<path class="st0" d="M1027.9,874c-1.1,0-2-0.8-2.1-1.9c-0.1-1.1,0.7-2.2,1.8-2.3l14-1.5c4.3-0.5,7.6-4.1,7.6-8.5
					c0-4.7-3.8-8.6-8.6-8.6h-3.3c-1.2,0-2.1-0.9-2.1-2.1c0-1.2,0.9-2.1,2.1-2.1h3.3c7,0,12.7,5.7,12.7,12.7
					c0,6.5-4.9,11.9-11.3,12.7L1027.9,874C1028,874,1028,874,1027.9,874z"/>
				<path class="st0" d="M1055.7,902.3H937.5c-1.2,0-2.1-0.9-2.1-2.1c0-1.2,0.9-2.1,2.1-2.1h118.2c1.2,0,2.1,0.9,2.1,2.1
					C1057.8,901.4,1056.9,902.3,1055.7,902.3z"/>
				<path class="st0" d="M981.5,851.2h-25.8c-1.2,0-2.1-0.9-2.1-2.1c0-1.2,0.9-2.1,2.1-2.1h25.8c1.2,0,2.1,0.9,2.1,2.1
					S982.7,851.2,981.5,851.2z"/>
				<path class="st0" d="M977.2,829.1c-1.2,0-2.1-0.9-2.1-2.1c0-2.7,1-5.2,2.9-7.1c1.2-1.2,1.8-2.6,1.8-4.2c0-1.6-0.6-3-1.7-4.1
					c-1.9-1.9-2.9-4.4-2.9-7.1c0-2.7,1-5.2,2.9-7.1c2.4-2.4,2.4-6.1,0.1-8.3l-0.2-0.2c-2.2-2.2-3.2-5.2-2.9-8.2
					c0.1-1.1,1.1-2,2.3-1.8c1.1,0.1,2,1.2,1.8,2.3c-0.2,1.8,0.4,3.5,1.7,4.8l0.2,0.2c3.9,3.9,3.9,10.2,0,14.1
					c-1.2,1.2-1.8,2.6-1.8,4.2c0,1.6,0.6,3,1.7,4.1c1.9,1.9,2.9,4.4,2.9,7.1c0,2.7-1,5.2-2.9,7.1c-1.2,1.2-1.8,2.6-1.8,4.2
					C979.3,828.2,978.4,829.1,977.2,829.1z"/>
				<path class="st0" d="M994.2,829.1c-1.2,0-2.1-0.9-2.1-2.1c0-2.7,1-5.2,2.9-7.1c1.2-1.2,1.8-2.6,1.8-4.2c0-1.6-0.6-3-1.7-4.1
					c-1.9-1.9-2.9-4.4-2.9-7.1c0-2.7,1-5.2,2.9-7.1c2.4-2.4,2.4-6.1,0.1-8.3l-0.2-0.2c-2.2-2.2-3.2-5.2-2.9-8.2
					c0.1-1.1,1.2-2,2.3-1.8c1.1,0.1,2,1.2,1.8,2.3c-0.2,1.8,0.4,3.5,1.7,4.8l0.2,0.2c3.9,3.9,3.9,10.2,0,14.1
					c-1.2,1.2-1.8,2.6-1.8,4.2c0,1.6,0.6,3,1.7,4.1c1.9,1.9,2.9,4.4,2.9,7.1c0,2.7-1,5.2-2.9,7.1c-1.2,1.2-1.8,2.6-1.8,4.2
					C996.3,828.2,995.4,829.1,994.2,829.1z"/>
				<path class="st0" d="M1011.2,829.1c-1.2,0-2.1-0.9-2.1-2.1c0-2.7,1-5.2,2.9-7.1c1.2-1.2,1.8-2.6,1.8-4.2c0-1.6-0.6-3-1.7-4.1
					c-1.9-1.9-2.9-4.4-2.9-7.1c0-2.7,1-5.2,2.9-7.1c1.2-1.2,1.8-2.6,1.8-4.2c0-1.6-0.6-3-1.7-4.1l-0.2-0.2c-2.2-2.2-3.2-5.2-2.9-8.2
					c0.1-1.1,1.2-2,2.3-1.8c1.1,0.1,2,1.2,1.8,2.3c-0.2,1.8,0.4,3.5,1.7,4.8l0.2,0.2c1.9,1.9,2.9,4.4,2.9,7.1c0,2.7-1,5.2-2.9,7.1
					c-1.2,1.2-1.8,2.6-1.8,4.2c0,1.6,0.6,3,1.7,4.1c1.9,1.9,2.9,4.4,2.9,7.1c0,2.7-1,5.2-2.9,7.1c-1.2,1.2-1.8,2.6-1.8,4.2
					C1013.3,828.2,1012.3,829.1,1011.2,829.1z"/>
			</g>
			<g>
				<path class="st5" d="M1065.2,925.5c-0.6,0-1.3-0.3-1.6-0.9l-2.7-4.5c-2.2-3.6-1.5-8.2,1.6-11.1c1.6-1.4,2.1-3.7,1.3-5.6
					l-2.6-6.3c-0.4-1,0.1-2.1,1-2.5c1-0.4,2.1,0.1,2.5,1l2.6,6.3c1.4,3.4,0.5,7.4-2.2,9.9c-1.8,1.6-2.2,4.2-0.9,6.3l2.7,4.5
					c0.5,0.9,0.3,2.1-0.6,2.6C1065.9,925.4,1065.5,925.5,1065.2,925.5z"/>
				<path class="st5" d="M1097,933.3c-0.6,0-1.3-0.3-1.6-0.9l-2.7-4.5c-2.2-3.6-1.5-8.2,1.6-11.1c1.6-1.4,2.1-3.7,1.3-5.6l-2.6-6.3
					c-0.4-1,0.1-2.1,1-2.5c1-0.4,2.1,0.1,2.5,1l2.6,6.3c1.4,3.4,0.5,7.4-2.2,9.9c-1.8,1.6-2.2,4.2-0.9,6.3l2.7,4.5
					c0.5,0.9,0.3,2.1-0.6,2.6C1097.7,933.2,1097.3,933.3,1097,933.3z"/>
				<path class="st0" d="M1202.1,1016.4h-110.8c-5.7,0-10.4-4.7-10.4-10.4s4.7-10.4,10.4-10.4h110.8c5.7,0,10.4,4.7,10.4,10.4
					C1212.5,1011.8,1207.9,1016.4,1202.1,1016.4z M1091.3,1000.1c-3.3,0-6,2.7-6,6s2.7,6,6,6h110.8c3.3,0,6-2.7,6-6s-2.7-6-6-6
					H1091.3z"/>
				<path class="st0" d="M1199.7,1000.1h-105.9c-1.2,0-2.2-1-2.2-2.2c0-30.4,24.8-55.2,55.2-55.2c30.4,0,55.2,24.8,55.2,55.2
					C1201.9,999.1,1200.9,1000.1,1199.7,1000.1z M1096,995.7h101.4c-1.2-27-23.5-48.6-50.7-48.6
					C1119.5,947.1,1097.2,968.7,1096,995.7z"/>
				<path class="st0" d="M1116.9,973.6c-0.5,0-1-0.2-1.4-0.5c-1-0.7-1.1-2.1-0.4-3.1c7.2-9.2,19-14.8,31.6-14.8c1.2,0,2.2,1,2.2,2.2
					s-1,2.2-2.2,2.2c-11.3,0-21.8,4.9-28.1,13.1C1118.2,973.3,1117.5,973.6,1116.9,973.6z"/>
				<path class="st0" d="M1152.5,947.4c-0.1,0-0.2,0-0.2,0c-3.7-0.4-7.3-0.4-11,0c-0.6,0.1-1.2-0.1-1.6-0.5
					c-2.6-2.2-4.1-5.3-4.1-8.6c0-6.2,5-11.3,11.3-11.3c6.2,0,11.3,5,11.3,11.3c0,3.3-1.5,6.5-4.1,8.6
					C1153.5,947.3,1153,947.4,1152.5,947.4z M1146.7,931.4c-3.8,0-6.8,3.1-6.8,6.8c0,1.7,0.7,3.4,1.9,4.6c3.4-0.3,6.6-0.3,9.9,0
					c1.2-1.3,1.9-2.9,1.9-4.6C1153.6,934.5,1150.5,931.4,1146.7,931.4z"/>
				<path class="st0" d="M1198.9,990.7h-104.3c-1.2,0-2.2-1-2.2-2.2s1-2.2,2.2-2.2h104.3c1.2,0,2.2,1,2.2,2.2
					S1200.1,990.7,1198.9,990.7z"/>
			</g>
			<g>
				<path class="st0" d="M994.4,1037.9h-37.9c-4.3,0-7.7-3.5-7.7-7.7v-4.8c0-2.1,0.5-4.1,1.5-6l3-5.6c1.5-2.8,2.3-6,2.3-9.2
					c0-2.5-0.5-4.9-1.4-7.2l-2.1-5.2c-0.5-1.2-0.7-2.4-0.7-3.6v-21.3c0-1.9,0.5-3.7,1.6-5.3l8.7-13.4c1.6-2.5,2.4-5.3,2.4-8.2v-12.9
					c0-1.1,0.9-2.1,2.1-2.1h18.7c1.1,0,2.1,0.9,2.1,2.1v12.9c0,2.9,0.8,5.8,2.4,8.2L998,962c1,1.6,1.6,3.4,1.6,5.3v21.3
					c0,1.3-0.2,2.5-0.7,3.6l-2.1,5.2c-0.9,2.3-1.4,4.7-1.4,7.2c0,3.2,0.8,6.4,2.3,9.2l3,5.6c1,1.8,1.5,3.9,1.5,6v4.8
					C1002.1,1034.5,998.7,1037.9,994.4,1037.9z M968.2,929.5v10.8c0,3.7-1.1,7.4-3.1,10.5l-8.7,13.4c-0.6,0.9-0.9,1.9-0.9,3v21.3
					c0,0.7,0.1,1.4,0.4,2.1l2.1,5.2c1.1,2.8,1.7,5.8,1.7,8.8c0,3.9-1,7.7-2.8,11.1l-3,5.6c-0.7,1.2-1,2.6-1,4v4.8
					c0,2,1.6,3.6,3.6,3.6h37.9c2,0,3.6-1.6,3.6-3.6v-4.8c0-1.4-0.3-2.8-1-4l-3-5.6c-1.8-3.4-2.8-7.3-2.8-11.1c0-3,0.6-6,1.7-8.8
					l2.1-5.2c0.3-0.7,0.4-1.4,0.4-2.1v-21.3c0-1.1-0.3-2.1-0.9-3l-8.7-13.4c-2-3.1-3.1-6.8-3.1-10.5v-10.8H968.2z"/>
				<path class="st0" d="M986.9,929.5H964c-2.1,0-3.7-1.7-3.7-3.7v-5.3c0-3.1,2.5-5.6,5.6-5.6H985c3.1,0,5.6,2.5,5.6,5.6v5.3
					C990.6,927.9,988.9,929.5,986.9,929.5z M964.4,925.4h22v-4.9c0-0.8-0.6-1.4-1.4-1.4h-19.1c-0.8,0-1.4,0.6-1.4,1.4L964.4,925.4
					L964.4,925.4z"/>
				<path class="st0" d="M997,966.8h-43.1c-1.1,0-2.1-0.9-2.1-2.1c0-1.1,0.9-2.1,2.1-2.1H997c1.1,0,2.1,0.9,2.1,2.1
					C999.1,965.9,998.1,966.8,997,966.8z"/>
				<path class="st0" d="M997,992.4h-43.3c-1.1,0-2.1-0.9-2.1-2.1c0-1.1,0.9-2.1,2.1-2.1H997c1.1,0,2.1,0.9,2.1,2.1
					S998.1,992.4,997,992.4z"/>
				<path class="st0" d="M1044.8,1037.9h-19.1c-3.5,0-6.4-2.5-7-5.9l-5.8-51.2c-0.1-0.6,0.1-1.2,0.5-1.6c0.4-0.4,1-0.7,1.6-0.7h40.5
					c0.6,0,1.2,0.3,1.6,0.7s0.6,1,0.5,1.6l-5.8,51C1051.2,1035.4,1048.3,1037.9,1044.8,1037.9z M1017.4,982.7l5.5,48.7
					c0.2,1.3,1.4,2.3,2.8,2.3h19.1c1.4,0,2.6-1,2.9-2.4l5.5-48.6L1017.4,982.7L1017.4,982.7z"/>
				<path class="st0" d="M1046.2,997.2c-4.1,0-8.5-0.9-13.4-2c-7.9-1.7-15.4,1.1-15.4,1.1c-1.1,0.4-2.3-0.1-2.7-1.2
					c-0.4-1.1,0.1-2.3,1.2-2.7c0.4-0.1,8.7-3.3,17.8-1.3c8.5,1.8,14,3,19.5,0.5c1-0.5,2.3,0,2.8,1s0,2.3-1,2.8
					C1052,996.7,1049.2,997.2,1046.2,997.2z"/>
				<path class="st0" d="M1055.7,982.7h-40.8c-1.4,0-2.8-0.6-3.8-1.7c-0.9-1.1-1.4-2.5-1.2-3.8c0.8-5.8,3.6-11.2,7.9-15.2
					c2.8-2.6,6.5-4,10.5-4h14c4,0,7.7,1.4,10.5,4c4.3,4,7.1,9.4,7.9,15.2c0.2,1.4-0.2,2.8-1.2,3.8
					C1058.5,982.1,1057.1,982.7,1055.7,982.7z M1028.3,962.1c-2.9,0-5.6,1-7.6,2.9c-3.6,3.4-5.9,7.9-6.6,12.7c0,0.2,0.1,0.4,0.2,0.5
					c0.2,0.2,0.4,0.3,0.7,0.3h40.8c0.2,0,0.5-0.1,0.7-0.3c0.1-0.1,0.2-0.3,0.2-0.5c-0.7-4.8-3-9.4-6.6-12.7c-2-1.9-4.7-2.9-7.6-2.9
					H1028.3z"/>
				<path class="st0" d="M1036.4,962.1c-0.1,0-0.2,0-0.2,0c-1.1-0.1-2-1.2-1.8-2.3l1-9c0.3-2.9,2.3-5.3,5.1-6.1l14.5-4.4
					c1.1-0.3,2.3,0.3,2.6,1.4c0.3,1.1-0.3,2.3-1.4,2.6l-14.5,4.4c-1.2,0.4-2,1.4-2.2,2.6l-1,9
					C1038.3,961.3,1037.4,962.1,1036.4,962.1z"/>
				<path class="st0" d="M1030.2,1009.3c-2.8,0-5.1-2.3-5.1-5.1s2.3-5.1,5.1-5.1c2.8,0,5.1,2.3,5.1,5.1
					C1035.3,1007,1033,1009.3,1030.2,1009.3z M1030.2,1003.3c-0.5,0-0.9,0.4-0.9,0.9s0.4,0.9,0.9,0.9s0.9-0.4,0.9-0.9
					C1031.2,1003.7,1030.8,1003.3,1030.2,1003.3z"/>
				<path class="st0" d="M1040.2,1025.9c-3.1,0-5.6-2.5-5.6-5.6s2.5-5.6,5.6-5.6s5.6,2.5,5.6,5.6
					C1045.8,1023.4,1043.3,1025.9,1040.2,1025.9z M1040.2,1019c-0.8,0-1.4,0.6-1.4,1.4c0,0.8,0.6,1.4,1.4,1.4s1.4-0.6,1.4-1.4
					S1041,1019,1040.2,1019z"/>
				<path class="st0" d="M1062.5,1037.9H941.9c-1.1,0-2.1-0.9-2.1-2.1c0-1.1,0.9-2.1,2.1-2.1h120.6c1.1,0,2.1,0.9,2.1,2.1
					S1063.6,1037.9,1062.5,1037.9z"/>
			</g>
		</g>
		<path id="XMLID_50_" class="st1" d="M1308.5,1062.9l-44.8-25.8c-7.8-4.5-17.5-4.5-25.3,0l-159.6,92.1c-4.7,2.7-10.5,2.7-15.2,0
			l-170.8-98.6c-4.7-2.7-7.6-7.7-7.6-13.2V820.3c0-5.4,2.9-10.4,7.6-13.2l170.8-98.6c4.7-2.7,10.5-2.7,15.2,0l170.8,98.6
			c4.7,2.7,7.6,7.7,7.6,13.2v183c0,9,4.8,17.4,12.7,21.9l44.8,25.8l50.7,29.2c0,0-33.8-23.6-47.5-58.4c-2.1-5.3-3.1-11-3.1-16.7
			V787.2c0-5.4-2.9-10.4-7.6-13.2L1079,642.3c-4.7-2.7-10.5-2.7-15.2,0L835.5,774c-4.7,2.7-7.6,7.7-7.6,13.2v263.5
			c0,5.4,2.9,10.4,7.6,13.2l228.2,131.7c4.7,2.7,10.5,2.7,15.2,0l193.1-111.5c8.1-4.6,17.1-7.2,26.4-7.5c14.3-0.4,36.3,2,60.3,15.3
			L1308.5,1062.9L1308.5,1062.9z"/>
	</g>
	<g id="XMLID_14_">
		<path id="XMLID_16_" class="st1" d="M825,195.5l-0.3,51.7c-0.1,9,4.7,17.4,12.5,22l159,93.1c4.7,2.7,7.5,7.8,7.5,13.2l-1.2,197.2
			c0,5.4-3,10.4-7.7,13.1l-171.4,97.5c-4.7,2.7-10.5,2.6-15.2-0.1l-170.1-99.6c-4.7-2.7-7.5-7.8-7.5-13.2l1.2-197.2
			c0-5.4,3-10.4,7.7-13.1l159.1-90.5c7.9-4.5,12.7-12.8,12.8-21.9l0.3-51.7l0.3-58.5c0,0-3.8,41.1-27.3,70.2c-3.6,4.4-8,8.1-13,11
			L582.2,326.6c-4.7,2.7-7.6,7.7-7.7,13.1l-1.6,263.5c0,5.4,2.8,10.5,7.5,13.2l227.4,133.1c4.7,2.7,10.5,2.8,15.2,0.1l229-130.3
			c4.7-2.7,7.6-7.7,7.7-13.1l1.6-263.5c0-5.4-2.8-10.5-7.5-13.2L861.4,216.8c-8-4.7-14.8-11.3-19.6-19.3
			c-7.4-12.3-16.2-32.5-16.5-60L825,195.5L825,195.5z"/>
		<g id="XMLID_15_">
			<path class="st0" d="M905.8,480.9c16.2-0.3,30.2-2.4,39.4-19.2c3.8-6.7,5.1-14.3,3.8-21.3c-1.1-32.4-55.6-41-72.6-33.4l0,0
				c3.5-12.1,2.7-25.1-2.2-36.4c-4.6-11.6-12.9-21.6-24.3-29.1c-11.6-7.3-24.8-10.8-38.3-10.8c-57.7,0-77.7,41.3-79.8,87.9
				c-4.9-4.9-8.9-15.1-9.2-19.4c-3.8,0.8-7.3,2.2-10.5,3.8c-6.5,3.5-11.9,8.1-15.6,14.3c-4,5.9-5.9,12.7-5.9,19.4
				c0,6.7,1.9,13.5,5.9,19.4c3.8,5.9,9.2,10.8,15.6,14.3c5.9,3,12.9,4.9,20,4.9l9.4-2.4l3,10c3,9.7,4.6,20.2,5.1,31.8
				c0,7,0.5,1.6,0,9.4c27.8-6.2,93.9-8.9,131.1,30.8c-44.2-28.3-91.7-19.4-141.1-7l-16.5,4l2.2-15.4c1.9-12.4,1.9-10.8,1.6-21
				c-0.3-7.3-1.1-13.8-2.4-20c-8.4-1.1-16.5-3.5-23.7-7.3c-9.7-5.1-18.1-12.4-24-21.6c-5.9-9.4-8.9-19.7-8.9-29.9
				c0-10.2,3-20.8,8.9-29.9c5.9-9.2,14.3-16.7,24-21.6c7-3.8,14.6-6.2,22.7-7.3c0.8-4.9,2.4-9.7,4.3-14.6
				c6.2-15.1,17.3-28.9,32.6-38.6c15.4-10,33.4-14.8,51.2-14.8s35.9,4.9,51.2,14.8c15.4,9.7,26.4,23.5,32.6,38.6
				c3.5,8.6,5.4,14.3,5.4,23.5c28.1-3.8,66.1,12.7,70.4,50.4c1.9,11.3,0,23.2-5.9,34s-15.4,19.2-26.4,24.5c-7.6,3.5-15.6,5.4-24,5.9
				c-15.9,4.9-17,19.4-20,44.8c-4-17.3-6.7-28.9-5.1-49.9c-9.7,5.4-21.6,7-33.2,4.3c32.4-9.4,48-28.6,47.2-57.2
				C911.7,455,912.2,469,905.8,480.9L905.8,480.9z"/>
			<path class="st0" d="M810.3,562.9L810.3,562.9c8.9-7.3,21.8-8.9,32.1-4.9c27.2,11.3,61.2,37.5,82.3,4
				c5.4,51-75.8,64.5-114.4,32.9c-38.8,31.6-120,18.1-114.4-32.9c21,33.4,54.8,7.3,82.3-4c10.3-4,23.2-2.4,31.8,4.9H810.3z"/>
		</g>
	</g>
</g>
</svg>
